<svg width="128" height="128" viewBox="0 0 128 128" fill="none" xmlns="http://www.w3.org/2000/svg">
<path d="M25.5998 102.4C19.0825 95.0101 14.8359 85.8965 13.3698 76.1529C11.9037 66.4093 13.2802 56.4495 17.3342 47.4689C21.3882 38.4882 27.9475 30.868 36.225 25.5228C44.5025 20.1777 54.1465 17.3345 63.9998 17.3345C73.8531 17.3345 83.4972 20.1777 91.7746 25.5228C100.052 30.868 106.611 38.4882 110.665 47.4689C114.719 56.4495 116.096 66.4093 114.63 76.1529C113.164 85.8965 108.917 95.0101 102.4 102.4" stroke="#334155" stroke-width="10.24" stroke-linecap="round"/>
<path d="M25.6 102.4C21.2805 95.0435 18.8676 86.7241 18.5807 78.1979C18.2938 69.6718 20.1419 61.209 23.9571 53.5787C27.7723 45.9483 33.4336 39.3922 40.4267 34.506C47.4198 29.6198 55.523 26.5585 64 25.6001" stroke="#00B8A5" stroke-width="10.24" stroke-linecap="round"/>
<path d="M64.6665 44.3333C64.8778 44.4917 65.1237 44.5977 65.3839 44.6425C65.6442 44.6872 65.9114 44.6695 66.1634 44.5908C66.4155 44.512 66.6453 44.3745 66.8338 44.1896C67.0223 44.0046 67.1641 43.7775 67.2476 43.527C67.3312 43.2764 67.3539 43.0096 67.3141 42.7486C67.2743 42.4875 67.173 42.2396 67.0186 42.0254C66.8642 41.8112 66.661 41.6367 66.426 41.5163C66.1909 41.396 65.9306 41.3333 65.6665 41.3333H55.6665" stroke="#00B8A5" stroke-width="1.66667" stroke-linecap="round" stroke-linejoin="round"/>
<path d="M68.5832 34.6666C68.7962 34.3825 69.0784 34.1576 69.4028 34.0132C69.7273 33.8688 70.0832 33.8098 70.4369 33.8417C70.7906 33.8736 71.1303 33.9953 71.4237 34.1954C71.717 34.3955 71.9544 34.6673 72.1132 34.9849C72.272 35.3025 72.347 35.6555 72.3311 36.0102C72.3151 36.365 72.2087 36.7098 72.022 37.0119C71.8353 37.3139 71.5745 37.5633 71.2643 37.7362C70.9542 37.9091 70.605 37.9999 70.2498 37.9999H55.6665" stroke="#00B8A5" stroke-width="1.66667" stroke-linecap="round" stroke-linejoin="round"/>
<path d="M62.1665 31.6666C62.3778 31.5081 62.6237 31.4022 62.8839 31.3574C63.1442 31.3126 63.4114 31.3303 63.6634 31.4091C63.9155 31.4878 64.1453 31.6253 64.3338 31.8103C64.5223 31.9952 64.6641 32.2223 64.7476 32.4729C64.8312 32.7234 64.8539 32.9902 64.8141 33.2513C64.7743 33.5123 64.673 33.7602 64.5186 33.9744C64.3642 34.1887 64.161 34.3632 63.926 34.4835C63.6909 34.6038 63.4306 34.6666 63.1665 34.6666H55.6665" stroke="#00B8A5" stroke-width="1.66667" stroke-linecap="round" stroke-linejoin="round"/>
<path d="M45.4382 73.1648V69.532L54.5469 55.1818H57.679V60.2102H55.8253L50.0831 69.2976V69.468H63.027V73.1648H45.4382ZM55.9105 77V72.0568L55.9957 70.4482V55.1818H60.321V77H55.9105ZM66.1005 77V73.6761L73.8668 66.4851C74.5273 65.8459 75.0813 65.2706 75.5288 64.7592C75.9833 64.2479 76.3278 63.7472 76.5621 63.2571C76.7965 62.7599 76.9137 62.2237 76.9137 61.6484C76.9137 61.0092 76.7681 60.4588 76.4769 59.9972C76.1857 59.5284 75.788 59.1697 75.2837 58.9212C74.7795 58.6655 74.2077 58.5376 73.5685 58.5376C72.9009 58.5376 72.3185 58.6726 71.8214 58.9425C71.3242 59.2124 70.9407 59.5994 70.6708 60.1037C70.4009 60.608 70.266 61.2081 70.266 61.9041H65.8874C65.8874 60.4766 66.2106 59.2372 66.8569 58.1861C67.5032 57.1349 68.4087 56.3217 69.5735 55.7464C70.7383 55.1712 72.0806 54.8835 73.6005 54.8835C75.163 54.8835 76.5231 55.1605 77.6808 55.7145C78.8455 56.2614 79.7511 57.0213 80.3974 57.9943C81.0437 58.9673 81.3668 60.0824 81.3668 61.3395C81.3668 62.1634 81.2035 62.9766 80.8768 63.7791C80.5572 64.5817 79.9854 65.473 79.1616 66.4531C78.3377 67.4261 77.1765 68.5945 75.6779 69.9581L72.4925 73.0795V73.2287H81.6545V77H66.1005Z" fill="white"/>
<path d="M54.9148 96H53.8068L57.0114 87.2727H58.1023L61.3068 96H60.1989L57.5909 88.6534H57.5227L54.9148 96ZM55.3239 92.5909H59.7898V93.5284H55.3239V92.5909ZM65.4265 93.2727H66.5856L67.5572 94.5511L67.8129 94.892L69.2617 96.8182H68.1026L67.1481 95.5398L66.9094 95.2159L65.4265 93.2727ZM69.6197 91.6364C69.6197 92.5568 69.4535 93.3523 69.1211 94.0227C68.7887 94.6932 68.3327 95.2102 67.7532 95.5739C67.1737 95.9375 66.5117 96.1193 65.7674 96.1193C65.0231 96.1193 64.3612 95.9375 63.7816 95.5739C63.2021 95.2102 62.7461 94.6932 62.4137 94.0227C62.0813 93.3523 61.9151 92.5568 61.9151 91.6364C61.9151 90.7159 62.0813 89.9205 62.4137 89.25C62.7461 88.5795 63.2021 88.0625 63.7816 87.6989C64.3612 87.3352 65.0231 87.1534 65.7674 87.1534C66.5117 87.1534 67.1737 87.3352 67.7532 87.6989C68.3327 88.0625 68.7887 88.5795 69.1211 89.25C69.4535 89.9205 69.6197 90.7159 69.6197 91.6364ZM68.5969 91.6364C68.5969 90.8807 68.4705 90.2429 68.2177 89.723C67.9677 89.2031 67.6282 88.8097 67.1992 88.5426C66.7731 88.2756 66.2958 88.142 65.7674 88.142C65.239 88.142 64.7603 88.2756 64.3313 88.5426C63.9052 88.8097 63.5657 89.2031 63.3129 89.723C63.0629 90.2429 62.9379 90.8807 62.9379 91.6364C62.9379 92.392 63.0629 93.0298 63.3129 93.5497C63.5657 94.0696 63.9052 94.4631 64.3313 94.7301C64.7603 94.9972 65.239 95.1307 65.7674 95.1307C66.2958 95.1307 66.7731 94.9972 67.1992 94.7301C67.6282 94.4631 67.9677 94.0696 68.2177 93.5497C68.4705 93.0298 68.5969 92.392 68.5969 91.6364ZM72.4535 87.2727V96H71.3967V87.2727H72.4535Z" fill="#94A3B8"/>
</svg>
