<svg width="48" height="48" viewBox="0 0 48 48" fill="none" xmlns="http://www.w3.org/2000/svg">
<rect width="48" height="48" rx="2" fill="#E8D5B7" fill-opacity="0.25"/>
<path d="M19 32H29" stroke="#305F43" stroke-width="2" stroke-linecap="round" stroke-linejoin="round"/>
<path d="M22 32C27.5 29.5 22.8 25.6 25 22" stroke="#305F43" stroke-width="2" stroke-linecap="round" stroke-linejoin="round"/>
<path d="M21.5 21.4C22.6 22.2 23.3 23.6 23.8 25.1C21.8 25.5 20.3 25.5 19 24.8C17.8 24.2 16.7 22.9 16 20.6C18.8 20.1 20.4 20.6 21.5 21.4Z" stroke="#305F43" stroke-width="2" stroke-linecap="round" stroke-linejoin="round"/>
<path d="M26.0998 18C25.3374 19.1916 24.9539 20.5861 24.9998 22C26.8998 21.9 28.2998 21.4 29.2998 20.6C30.2998 19.6 30.8998 18.3 30.9998 16C28.2998 16.1 26.9998 17 26.0998 18Z" stroke="#305F43" stroke-width="2" stroke-linecap="round" stroke-linejoin="round"/>
</svg>
