<svg width="495" height="167" viewBox="0 0 495 167" fill="none" xmlns="http://www.w3.org/2000/svg">
<rect width="494.4" height="166.3" rx="12" fill="#1E293B" fill-opacity="0.3"/>
<path d="M25.8239 25.9091C25.8239 26.983 25.63 27.911 25.2422 28.6932C24.8544 29.4754 24.3224 30.0786 23.6463 30.5028C22.9702 30.9271 22.1979 31.1392 21.3295 31.1392C20.4612 31.1392 19.6889 30.9271 19.0128 30.5028C18.3366 30.0786 17.8047 29.4754 17.4169 28.6932C17.0291 27.911 16.8352 26.983 16.8352 25.9091C16.8352 24.8352 17.0291 23.9072 17.4169 23.125C17.8047 22.3428 18.3366 21.7396 19.0128 21.3153C19.6889 20.8911 20.4612 20.679 21.3295 20.679C22.1979 20.679 22.9702 20.8911 23.6463 21.3153C24.3224 21.7396 24.8544 22.3428 25.2422 23.125C25.63 23.9072 25.8239 24.8352 25.8239 25.9091ZM24.6307 25.9091C24.6307 25.0275 24.4832 24.2834 24.1882 23.6768C23.8965 23.0703 23.5005 22.6113 23 22.2997C22.5028 21.9882 21.946 21.8324 21.3295 21.8324C20.7131 21.8324 20.1546 21.9882 19.6541 22.2997C19.157 22.6113 18.7609 23.0703 18.4659 23.6768C18.1742 24.2834 18.0284 25.0275 18.0284 25.9091C18.0284 26.7907 18.1742 27.5348 18.4659 28.1413C18.7609 28.7479 19.157 29.2069 19.6541 29.5185C20.1546 29.83 20.7131 29.9858 21.3295 29.9858C21.946 29.9858 22.5028 29.83 23 29.5185C23.5005 29.2069 23.8965 28.7479 24.1882 28.1413C24.4832 27.5348 24.6307 26.7907 24.6307 25.9091ZM31.1385 23.3636V24.358H27.022V23.3636H31.1385ZM28.255 31V22.3097C28.255 21.8722 28.3577 21.5076 28.5632 21.2159C28.7687 20.9242 29.0355 20.7055 29.3636 20.5597C29.6918 20.4138 30.0381 20.3409 30.4027 20.3409C30.6911 20.3409 30.9264 20.3641 31.1087 20.4105C31.291 20.4569 31.4268 20.5 31.5163 20.5398L31.1783 21.554C31.1186 21.5341 31.0357 21.5092 30.9297 21.4794C30.8269 21.4496 30.6911 21.4347 30.522 21.4347C30.1342 21.4347 29.8542 21.5324 29.6818 21.728C29.5128 21.9235 29.4283 22.2102 29.4283 22.5881V31H28.255ZM36.1834 23.3636V24.358H32.0669V23.3636H36.1834ZM33.2999 31V22.3097C33.2999 21.8722 33.4026 21.5076 33.6081 21.2159C33.8136 20.9242 34.0804 20.7055 34.4086 20.5597C34.7367 20.4138 35.083 20.3409 35.4476 20.3409C35.736 20.3409 35.9713 20.3641 36.1536 20.4105C36.3359 20.4569 36.4718 20.5 36.5613 20.5398L36.2232 21.554C36.1635 21.5341 36.0807 21.5092 35.9746 21.4794C35.8719 21.4496 35.736 21.4347 35.5669 21.4347C35.1792 21.4347 34.8991 21.5324 34.7267 21.728C34.5577 21.9235 34.4732 22.2102 34.4732 22.5881V31H33.2999ZM37.8278 31V23.3636H39.0011V31H37.8278ZM38.4244 22.0909C38.1957 22.0909 37.9985 22.013 37.8327 21.8572C37.6703 21.7015 37.5891 21.5142 37.5891 21.2955C37.5891 21.0767 37.6703 20.8894 37.8327 20.7337C37.9985 20.5779 38.1957 20.5 38.4244 20.5C38.6531 20.5 38.8486 20.5779 39.011 20.7337C39.1767 20.8894 39.2596 21.0767 39.2596 21.2955C39.2596 21.5142 39.1767 21.7015 39.011 21.8572C38.8486 22.013 38.6531 22.0909 38.4244 22.0909ZM44.2523 31.1591C43.5364 31.1591 42.9199 30.9901 42.4029 30.652C41.8858 30.3139 41.4881 29.8482 41.2097 29.255C40.9313 28.6617 40.7921 27.9839 40.7921 27.2216C40.7921 26.446 40.9346 25.7616 41.2196 25.1683C41.508 24.5717 41.909 24.1061 42.4228 23.7713C42.9398 23.4332 43.543 23.2642 44.2324 23.2642C44.7694 23.2642 45.2533 23.3636 45.6841 23.5625C46.115 23.7614 46.468 24.0398 46.7431 24.3977C47.0182 24.7557 47.1889 25.1733 47.2551 25.6506H46.0819C45.9924 25.3026 45.7935 24.9943 45.4853 24.7259C45.1803 24.4541 44.7694 24.3182 44.2523 24.3182C43.7949 24.3182 43.3939 24.4375 43.0492 24.6761C42.7078 24.9115 42.441 25.2446 42.2488 25.6754C42.0598 26.103 41.9654 26.6051 41.9654 27.1818C41.9654 27.7718 42.0582 28.2855 42.2438 28.723C42.4327 29.1605 42.6979 29.5002 43.0392 29.7422C43.3839 29.9841 43.7883 30.1051 44.2523 30.1051C44.5572 30.1051 44.834 30.0521 45.0826 29.946C45.3311 29.84 45.5416 29.6875 45.714 29.4886C45.8863 29.2898 46.0089 29.0511 46.0819 28.7727H47.2551C47.1889 29.2235 47.0248 29.6295 46.763 29.9908C46.5044 30.3487 46.1614 30.6338 45.7338 30.8459C45.3096 31.0547 44.8158 31.1591 44.2523 31.1591ZM52.1721 31.1591C51.4363 31.1591 50.8016 30.9967 50.2679 30.6719C49.7376 30.3438 49.3283 29.8864 49.04 29.2997C48.7549 28.7098 48.6124 28.0237 48.6124 27.2415C48.6124 26.4593 48.7549 25.7699 49.04 25.1733C49.3283 24.5734 49.7293 24.1061 50.2431 23.7713C50.7601 23.4332 51.3633 23.2642 52.0527 23.2642C52.4505 23.2642 52.8432 23.3305 53.231 23.4631C53.6188 23.5956 53.9718 23.8111 54.29 24.1094C54.6081 24.4044 54.8617 24.7955 55.0506 25.2827C55.2395 25.7699 55.334 26.3698 55.334 27.0824V27.5795H49.4476V26.5653H54.1408C54.1408 26.1345 54.0546 25.75 53.8823 25.4119C53.7132 25.0739 53.4713 24.8071 53.1564 24.6115C52.8449 24.416 52.477 24.3182 52.0527 24.3182C51.5854 24.3182 51.181 24.4342 50.8397 24.6662C50.5016 24.8949 50.2414 25.1932 50.0591 25.5611C49.8768 25.929 49.7857 26.3234 49.7857 26.7443V27.4205C49.7857 27.9972 49.8851 28.486 50.084 28.8871C50.2862 29.2848 50.5662 29.5881 50.9242 29.7969C51.2821 30.0024 51.6981 30.1051 52.1721 30.1051C52.4803 30.1051 52.7587 30.062 53.0073 29.9759C53.2592 29.8864 53.4763 29.7538 53.6586 29.5781C53.8409 29.3991 53.9817 29.1771 54.0811 28.9119L55.2147 29.2301C55.0953 29.6146 54.8948 29.9527 54.6131 30.2443C54.3314 30.5327 53.9834 30.758 53.5691 30.9205C53.1548 31.0795 52.6891 31.1591 52.1721 31.1591ZM61.633 31H60.3404L64.079 20.8182H65.3517L69.0904 31H67.7978L64.7551 22.429H64.6756L61.633 31ZM62.1103 27.0227H67.3205V28.1165H62.1103V27.0227ZM70.5172 31V23.3636H71.6507V24.517H71.7303C71.8695 24.1392 72.1214 23.8326 72.486 23.5973C72.8506 23.362 73.2615 23.2443 73.7189 23.2443C73.8051 23.2443 73.9128 23.246 74.0421 23.2493C74.1713 23.2526 74.2691 23.2576 74.3354 23.2642V24.4574C74.2956 24.4474 74.2045 24.4325 74.062 24.4126C73.9228 24.3894 73.7753 24.3778 73.6195 24.3778C73.2483 24.3778 72.9168 24.4557 72.6252 24.6115C72.3368 24.764 72.1081 24.9761 71.9391 25.2479C71.7734 25.5163 71.6905 25.8229 71.6905 26.1676V31H70.5172ZM78.6955 31.1591C77.9597 31.1591 77.325 30.9967 76.7914 30.6719C76.2611 30.3438 75.8517 29.8864 75.5634 29.2997C75.2783 28.7098 75.1358 28.0237 75.1358 27.2415C75.1358 26.4593 75.2783 25.7699 75.5634 25.1733C75.8517 24.5734 76.2528 24.1061 76.7665 23.7713C77.2836 23.4332 77.8868 23.2642 78.5762 23.2642C78.9739 23.2642 79.3667 23.3305 79.7544 23.4631C80.1422 23.5956 80.4952 23.8111 80.8134 24.1094C81.1316 24.4044 81.3851 24.7955 81.574 25.2827C81.763 25.7699 81.8574 26.3698 81.8574 27.0824V27.5795H75.9711V26.5653H80.6642C80.6642 26.1345 80.5781 25.75 80.4057 25.4119C80.2367 25.0739 79.9947 24.8071 79.6799 24.6115C79.3683 24.416 79.0004 24.3182 78.5762 24.3182C78.1088 24.3182 77.7045 24.4342 77.3631 24.6662C77.025 24.8949 76.7649 25.1932 76.5826 25.5611C76.4003 25.929 76.3091 26.3234 76.3091 26.7443V27.4205C76.3091 27.9972 76.4086 28.486 76.6074 28.8871C76.8096 29.2848 77.0897 29.5881 77.4476 29.7969C77.8056 30.0024 78.2215 30.1051 78.6955 30.1051C79.0037 30.1051 79.2821 30.062 79.5307 29.9759C79.7826 29.8864 79.9997 29.7538 80.182 29.5781C80.3643 29.3991 80.5051 29.1771 80.6046 28.9119L81.7381 29.2301C81.6188 29.6146 81.4183 29.9527 81.1365 30.2443C80.8548 30.5327 80.5068 30.758 80.0925 30.9205C79.6782 31.0795 79.2125 31.1591 78.6955 31.1591ZM85.8894 31.179C85.4055 31.179 84.9663 31.0878 84.5719 30.9055C84.1775 30.7199 83.8643 30.4531 83.6323 30.1051C83.4003 29.7538 83.2843 29.3295 83.2843 28.8324C83.2843 28.3949 83.3704 28.0402 83.5428 27.7685C83.7151 27.4934 83.9455 27.2779 84.2338 27.1222C84.5222 26.9664 84.8404 26.8504 85.1884 26.7741C85.5397 26.6946 85.8927 26.6316 86.2473 26.5852C86.7114 26.5256 87.0875 26.4808 87.3759 26.451C87.6676 26.4179 87.8797 26.3632 88.0123 26.2869C88.1481 26.2107 88.2161 26.0781 88.2161 25.8892V25.8494C88.2161 25.3589 88.0819 24.9777 87.8134 24.706C87.5482 24.4342 87.1455 24.2983 86.6053 24.2983C86.0452 24.2983 85.606 24.4209 85.2878 24.6662C84.9696 24.9115 84.7459 25.1733 84.6167 25.4517L83.503 25.054C83.7019 24.59 83.967 24.2287 84.2985 23.9702C84.6332 23.7083 84.9978 23.526 85.3922 23.4233C85.79 23.3172 86.181 23.2642 86.5655 23.2642C86.8108 23.2642 87.0925 23.294 87.4107 23.3537C87.7322 23.41 88.0421 23.5277 88.3404 23.7067C88.642 23.8857 88.8922 24.1558 89.0911 24.517C89.29 24.8783 89.3894 25.3622 89.3894 25.9688V31H88.2161V29.9659H88.1564C88.0769 30.1316 87.9443 30.3089 87.7587 30.4979C87.5731 30.6868 87.3262 30.8475 87.0179 30.9801C86.7097 31.1127 86.3335 31.179 85.8894 31.179ZM86.0684 30.125C86.5324 30.125 86.9235 30.0339 87.2417 29.8516C87.5632 29.6693 87.8051 29.4339 87.9675 29.1456C88.1332 28.8572 88.2161 28.554 88.2161 28.2358V27.1619C88.1664 27.2216 88.057 27.2763 87.888 27.326C87.7222 27.3724 87.53 27.4138 87.3113 27.4503C87.0958 27.4834 86.8854 27.5133 86.6799 27.5398C86.4777 27.563 86.3136 27.5829 86.1877 27.5994C85.8828 27.6392 85.5977 27.7038 85.3326 27.7933C85.0707 27.8795 84.8586 28.0104 84.6962 28.1861C84.5371 28.3584 84.4576 28.5937 84.4576 28.892C84.4576 29.2997 84.6084 29.608 84.91 29.8168C85.2149 30.0223 85.601 30.125 86.0684 30.125ZM95.6275 31V20.8182H99.0678C99.8633 20.8182 100.516 20.9541 101.027 21.2259C101.537 21.4943 101.915 21.8639 102.16 22.3345C102.405 22.8052 102.528 23.3404 102.528 23.9403C102.528 24.5402 102.405 25.0722 102.16 25.5362C101.915 26.0002 101.539 26.3648 101.032 26.63C100.525 26.8918 99.8765 27.0227 99.0877 27.0227H96.3036V25.9091H99.0479C99.5915 25.9091 100.029 25.8295 100.36 25.6705C100.695 25.5114 100.937 25.286 101.086 24.9943C101.239 24.6993 101.315 24.348 101.315 23.9403C101.315 23.5327 101.239 23.1764 101.086 22.8714C100.934 22.5665 100.69 22.3312 100.355 22.1655C100.021 21.9964 99.5782 21.9119 99.0281 21.9119H96.8604V31H95.6275ZM100.42 26.4261L102.926 31H101.494L99.0281 26.4261H100.42ZM107.543 31.1591C106.807 31.1591 106.173 30.9967 105.639 30.6719C105.109 30.3438 104.699 29.8864 104.411 29.2997C104.126 28.7098 103.983 28.0237 103.983 27.2415C103.983 26.4593 104.126 25.7699 104.411 25.1733C104.699 24.5734 105.1 24.1061 105.614 23.7713C106.131 23.4332 106.734 23.2642 107.424 23.2642C107.822 23.2642 108.214 23.3305 108.602 23.4631C108.99 23.5956 109.343 23.8111 109.661 24.1094C109.979 24.4044 110.233 24.7955 110.422 25.2827C110.611 25.7699 110.705 26.3698 110.705 27.0824V27.5795H104.819V26.5653H109.512C109.512 26.1345 109.426 25.75 109.253 25.4119C109.084 25.0739 108.842 24.8071 108.528 24.6115C108.216 24.416 107.848 24.3182 107.424 24.3182C106.956 24.3182 106.552 24.4342 106.211 24.6662C105.873 24.8949 105.613 25.1932 105.43 25.5611C105.248 25.929 105.157 26.3234 105.157 26.7443V27.4205C105.157 27.9972 105.256 28.486 105.455 28.8871C105.657 29.2848 105.937 29.5881 106.295 29.7969C106.653 30.0024 107.069 30.1051 107.543 30.1051C107.851 30.1051 108.13 30.062 108.378 29.9759C108.63 29.8864 108.847 29.7538 109.03 29.5781C109.212 29.3991 109.353 29.1771 109.452 28.9119L110.586 29.2301C110.466 29.6146 110.266 29.9527 109.984 30.2443C109.702 30.5327 109.354 30.758 108.94 30.9205C108.526 31.0795 108.06 31.1591 107.543 31.1591ZM114.737 31.179C114.253 31.179 113.814 31.0878 113.42 30.9055C113.025 30.7199 112.712 30.4531 112.48 30.1051C112.248 29.7538 112.132 29.3295 112.132 28.8324C112.132 28.3949 112.218 28.0402 112.39 27.7685C112.563 27.4934 112.793 27.2779 113.081 27.1222C113.37 26.9664 113.688 26.8504 114.036 26.7741C114.387 26.6946 114.74 26.6316 115.095 26.5852C115.559 26.5256 115.935 26.4808 116.224 26.451C116.515 26.4179 116.727 26.3632 116.86 26.2869C116.996 26.2107 117.064 26.0781 117.064 25.8892V25.8494C117.064 25.3589 116.93 24.9777 116.661 24.706C116.396 24.4342 115.993 24.2983 115.453 24.2983C114.893 24.2983 114.454 24.4209 114.135 24.6662C113.817 24.9115 113.594 25.1733 113.464 25.4517L112.351 25.054C112.55 24.59 112.815 24.2287 113.146 23.9702C113.481 23.7083 113.845 23.526 114.24 23.4233C114.638 23.3172 115.029 23.2642 115.413 23.2642C115.658 23.2642 115.94 23.294 116.258 23.3537C116.58 23.41 116.89 23.5277 117.188 23.7067C117.49 23.8857 117.74 24.1558 117.939 24.517C118.138 24.8783 118.237 25.3622 118.237 25.9688V31H117.064V29.9659H117.004C116.925 30.1316 116.792 30.3089 116.606 30.4979C116.421 30.6868 116.174 30.8475 115.866 30.9801C115.557 31.1127 115.181 31.179 114.737 31.179ZM114.916 30.125C115.38 30.125 115.771 30.0339 116.089 29.8516C116.411 29.6693 116.653 29.4339 116.815 29.1456C116.981 28.8572 117.064 28.554 117.064 28.2358V27.1619C117.014 27.2216 116.905 27.2763 116.736 27.326C116.57 27.3724 116.378 27.4138 116.159 27.4503C115.943 27.4834 115.733 27.5133 115.528 27.5398C115.325 27.563 115.161 27.5829 115.035 27.5994C114.73 27.6392 114.445 27.7038 114.18 27.7933C113.918 27.8795 113.706 28.0104 113.544 28.1861C113.385 28.3584 113.305 28.5937 113.305 28.892C113.305 29.2997 113.456 29.608 113.758 29.8168C114.063 30.0223 114.449 30.125 114.916 30.125ZM123.262 31.1591C122.626 31.1591 122.064 30.9983 121.577 30.6768C121.089 30.352 120.708 29.8946 120.433 29.3047C120.158 28.7114 120.021 28.0104 120.021 27.2017C120.021 26.3996 120.158 25.7036 120.433 25.1136C120.708 24.5237 121.091 24.0679 121.582 23.7464C122.072 23.425 122.639 23.2642 123.282 23.2642C123.779 23.2642 124.172 23.3471 124.46 23.5128C124.752 23.6752 124.974 23.8608 125.126 24.0696C125.282 24.2751 125.403 24.4441 125.489 24.5767H125.589V20.8182H126.762V31H125.629V29.8267H125.489C125.403 29.9659 125.281 30.1416 125.121 30.3537C124.962 30.5625 124.735 30.7498 124.44 30.9155C124.145 31.0779 123.753 31.1591 123.262 31.1591ZM123.421 30.1051C123.892 30.1051 124.29 29.9825 124.614 29.7372C124.939 29.4886 125.186 29.1456 125.355 28.7081C125.524 28.2673 125.609 27.7585 125.609 27.1818C125.609 26.6117 125.526 26.1129 125.36 25.6854C125.194 25.2545 124.949 24.9197 124.624 24.6811C124.299 24.4392 123.898 24.3182 123.421 24.3182C122.924 24.3182 122.51 24.4458 122.178 24.701C121.85 24.9529 121.603 25.2959 121.438 25.7301C121.275 26.161 121.194 26.6449 121.194 27.1818C121.194 27.7254 121.277 28.2192 121.442 28.6634C121.612 29.1042 121.86 29.4555 122.188 29.7173C122.52 29.9759 122.931 30.1051 123.421 30.1051ZM129.074 31V23.3636H130.247V31H129.074ZM129.67 22.0909C129.442 22.0909 129.245 22.013 129.079 21.8572C128.916 21.7015 128.835 21.5142 128.835 21.2955C128.835 21.0767 128.916 20.8894 129.079 20.7337C129.245 20.5779 129.442 20.5 129.67 20.5C129.899 20.5 130.095 20.5779 130.257 20.7337C130.423 20.8894 130.506 21.0767 130.506 21.2955C130.506 21.5142 130.423 21.7015 130.257 21.8572C130.095 22.013 129.899 22.0909 129.67 22.0909ZM133.569 26.4062V31H132.396V23.3636H133.53V24.5568H133.629C133.808 24.169 134.08 23.8575 134.444 23.6222C134.809 23.3835 135.28 23.2642 135.856 23.2642C136.373 23.2642 136.826 23.3703 137.214 23.5824C137.601 23.7912 137.903 24.1094 138.118 24.5369C138.334 24.9612 138.442 25.4981 138.442 26.1477V31H137.268V26.2273C137.268 25.6274 137.113 25.16 136.801 24.8253C136.489 24.4872 136.062 24.3182 135.518 24.3182C135.144 24.3182 134.809 24.3994 134.514 24.5618C134.222 24.7242 133.992 24.9612 133.823 25.2727C133.654 25.5843 133.569 25.9621 133.569 26.4062ZM143.668 34.0227C143.101 34.0227 142.614 33.9498 142.206 33.804C141.799 33.6615 141.459 33.4725 141.187 33.2372C140.919 33.0052 140.705 32.7566 140.546 32.4915L141.48 31.8352C141.587 31.9744 141.721 32.1335 141.883 32.3125C142.046 32.4948 142.268 32.6522 142.549 32.7848C142.834 32.9207 143.207 32.9886 143.668 32.9886C144.284 32.9886 144.793 32.8395 145.194 32.5412C145.595 32.2429 145.796 31.7756 145.796 31.1392V29.5881H145.696C145.61 29.7273 145.488 29.8996 145.328 30.1051C145.173 30.3073 144.947 30.4879 144.652 30.647C144.361 30.8028 143.966 30.8807 143.469 30.8807C142.853 30.8807 142.299 30.7348 141.809 30.4432C141.321 30.1515 140.935 29.7273 140.65 29.1705C140.368 28.6136 140.228 27.9375 140.228 27.142C140.228 26.3598 140.365 25.6787 140.64 25.0987C140.915 24.5154 141.298 24.0646 141.789 23.7464C142.279 23.425 142.846 23.2642 143.489 23.2642C143.986 23.2642 144.381 23.3471 144.672 23.5128C144.967 23.6752 145.193 23.8608 145.348 24.0696C145.507 24.2751 145.63 24.4441 145.716 24.5767H145.836V23.3636H146.969V31.2188C146.969 31.875 146.82 32.4086 146.522 32.8196C146.227 33.2339 145.829 33.5372 145.328 33.7294C144.831 33.925 144.278 34.0227 143.668 34.0227ZM143.628 29.8267C144.099 29.8267 144.497 29.719 144.821 29.5036C145.146 29.2881 145.393 28.9782 145.562 28.5739C145.731 28.1695 145.816 27.6856 145.816 27.1222C145.816 26.572 145.733 26.0864 145.567 25.6655C145.401 25.2446 145.156 24.9148 144.831 24.6761C144.507 24.4375 144.105 24.3182 143.628 24.3182C143.131 24.3182 142.717 24.4441 142.385 24.696C142.057 24.9479 141.81 25.286 141.645 25.7102C141.482 26.1345 141.401 26.6051 141.401 27.1222C141.401 27.6525 141.484 28.1214 141.65 28.5291C141.819 28.9335 142.067 29.2517 142.395 29.4837C142.727 29.7124 143.138 29.8267 143.628 29.8267ZM154.526 25.0739L153.472 25.3722C153.406 25.1965 153.308 25.0258 153.179 24.8601C153.053 24.6911 152.88 24.5518 152.662 24.4425C152.443 24.3331 152.163 24.2784 151.821 24.2784C151.354 24.2784 150.965 24.3861 150.653 24.6016C150.345 24.8137 150.191 25.0838 150.191 25.4119C150.191 25.7036 150.297 25.9339 150.509 26.103C150.721 26.272 151.052 26.4129 151.503 26.5256L152.637 26.804C153.319 26.9697 153.828 27.2232 154.163 27.5646C154.498 27.9027 154.665 28.3385 154.665 28.8722C154.665 29.3097 154.539 29.7008 154.287 30.0455C154.039 30.3902 153.691 30.6619 153.243 30.8608C152.796 31.0597 152.275 31.1591 151.682 31.1591C150.903 31.1591 150.259 30.9901 149.748 30.652C149.238 30.3139 148.915 29.8201 148.779 29.1705L149.892 28.892C149.998 29.303 150.199 29.6113 150.494 29.8168C150.792 30.0223 151.182 30.125 151.662 30.125C152.209 30.125 152.643 30.009 152.965 29.777C153.29 29.5417 153.452 29.2599 153.452 28.9318C153.452 28.6667 153.359 28.4446 153.174 28.2656C152.988 28.0833 152.703 27.9474 152.319 27.858L151.046 27.5597C150.346 27.3939 149.833 27.1371 149.505 26.7891C149.18 26.4377 149.017 25.9986 149.017 25.4716C149.017 25.0407 149.138 24.6596 149.38 24.3281C149.626 23.9967 149.959 23.7365 150.38 23.5476C150.804 23.3587 151.284 23.2642 151.821 23.2642C152.577 23.2642 153.17 23.4299 153.601 23.7614C154.035 24.0928 154.344 24.5303 154.526 25.0739Z" fill="#CBD5E1"/>
<rect x="302.4" y="21.6499" width="8" height="8" rx="4" fill="#00B8A5"/>
<path d="M321.417 25.1634C321.417 25.9305 321.278 26.5934 321.001 27.1521C320.724 27.7108 320.345 28.1417 319.862 28.4447C319.379 28.7477 318.827 28.8992 318.207 28.8992C317.586 28.8992 317.035 28.7477 316.552 28.4447C316.069 28.1417 315.689 27.7108 315.412 27.1521C315.135 26.5934 314.996 25.9305 314.996 25.1634C314.996 24.3964 315.135 23.7335 315.412 23.1748C315.689 22.6161 316.069 22.1852 316.552 21.8822C317.035 21.5792 317.586 21.4276 318.207 21.4276C318.827 21.4276 319.379 21.5792 319.862 21.8822C320.345 22.1852 320.724 22.6161 321.001 23.1748C321.278 23.7335 321.417 24.3964 321.417 25.1634ZM320.565 25.1634C320.565 24.5337 320.459 24.0022 320.249 23.569C320.04 23.1357 319.757 22.8079 319.4 22.5853C319.045 22.3628 318.647 22.2515 318.207 22.2515C317.766 22.2515 317.367 22.3628 317.01 22.5853C316.655 22.8079 316.372 23.1357 316.161 23.569C315.953 24.0022 315.849 24.5337 315.849 25.1634C315.849 25.7932 315.953 26.3247 316.161 26.7579C316.372 27.1911 316.655 27.519 317.01 27.7416C317.367 27.9641 317.766 28.0754 318.207 28.0754C318.647 28.0754 319.045 27.9641 319.4 27.7416C319.757 27.519 320.04 27.1911 320.249 26.7579C320.459 26.3247 320.565 25.7932 320.565 25.1634ZM325.213 23.3453V24.0555H322.273V23.3453H325.213ZM323.153 28.7998V22.5924C323.153 22.2799 323.227 22.0195 323.374 21.8112C323.52 21.6028 323.711 21.4466 323.945 21.3424C324.18 21.2383 324.427 21.1862 324.688 21.1862C324.894 21.1862 325.062 21.2027 325.192 21.2359C325.322 21.269 325.419 21.2998 325.483 21.3282L325.242 22.0526C325.199 22.0384 325.14 22.0207 325.064 21.9994C324.991 21.9781 324.894 21.9674 324.773 21.9674C324.496 21.9674 324.296 22.0373 324.173 22.1769C324.052 22.3166 323.992 22.5214 323.992 22.7913V28.7998H323.153ZM328.817 23.3453V24.0555H325.876V23.3453H328.817ZM326.757 28.7998V22.5924C326.757 22.2799 326.83 22.0195 326.977 21.8112C327.124 21.6028 327.314 21.4466 327.549 21.3424C327.783 21.2383 328.031 21.1862 328.291 21.1862C328.497 21.1862 328.665 21.2027 328.795 21.2359C328.926 21.269 329.023 21.2998 329.087 21.3282L328.845 22.0526C328.802 22.0384 328.743 22.0207 328.667 21.9994C328.594 21.9781 328.497 21.9674 328.376 21.9674C328.099 21.9674 327.899 22.0373 327.776 22.1769C327.655 22.3166 327.595 22.5214 327.595 22.7913V28.7998H326.757ZM329.991 28.7998V23.3453H330.829V28.7998H329.991ZM330.417 22.4362C330.254 22.4362 330.113 22.3805 329.995 22.2693C329.879 22.158 329.821 22.0242 329.821 21.868C329.821 21.7117 329.879 21.578 329.995 21.4667C330.113 21.3554 330.254 21.2998 330.417 21.2998C330.581 21.2998 330.72 21.3554 330.836 21.4667C330.955 21.578 331.014 21.7117 331.014 21.868C331.014 22.0242 330.955 22.158 330.836 22.2693C330.72 22.3805 330.581 22.4362 330.417 22.4362ZM334.58 28.9134C334.069 28.9134 333.628 28.7927 333.259 28.5512C332.89 28.3097 332.606 27.9771 332.407 27.5534C332.208 27.1296 332.109 26.6454 332.109 26.1009C332.109 25.547 332.21 25.0581 332.414 24.6343C332.62 24.2082 332.906 23.8756 333.273 23.6365C333.643 23.395 334.073 23.2742 334.566 23.2742C334.949 23.2742 335.295 23.3453 335.603 23.4873C335.911 23.6294 336.163 23.8282 336.359 24.0839C336.556 24.3396 336.678 24.6379 336.725 24.9788H335.887C335.823 24.7302 335.681 24.51 335.461 24.3183C335.243 24.1241 334.949 24.0271 334.58 24.0271C334.253 24.0271 333.967 24.1123 333.721 24.2828C333.477 24.4508 333.286 24.6888 333.149 24.9965C333.014 25.3019 332.947 25.6606 332.947 26.0725C332.947 26.4939 333.013 26.8609 333.145 27.1734C333.28 27.4859 333.47 27.7285 333.714 27.9014C333.96 28.0742 334.249 28.1606 334.58 28.1606C334.798 28.1606 334.996 28.1227 335.173 28.047C335.351 27.9712 335.501 27.8623 335.624 27.7203C335.747 27.5782 335.835 27.4078 335.887 27.2089H336.725C336.678 27.5309 336.56 27.8209 336.373 28.0789C336.189 28.3346 335.944 28.5382 335.638 28.6897C335.335 28.8389 334.983 28.9134 334.58 28.9134ZM340.237 28.9134C339.712 28.9134 339.258 28.7974 338.877 28.5654C338.498 28.3311 338.206 28.0044 338 27.5853C337.796 27.1639 337.694 26.6739 337.694 26.1151C337.694 25.5564 337.796 25.064 338 24.6379C338.206 24.2094 338.492 23.8756 338.859 23.6365C339.229 23.395 339.659 23.2742 340.152 23.2742C340.436 23.2742 340.716 23.3216 340.993 23.4163C341.27 23.511 341.523 23.6649 341.75 23.8779C341.977 24.0886 342.158 24.368 342.293 24.716C342.428 25.064 342.496 25.4925 342.496 26.0015V26.3566H338.291V25.6322H341.643C341.643 25.3244 341.582 25.0498 341.459 24.8083C341.338 24.5668 341.165 24.3763 340.94 24.2366C340.718 24.0969 340.455 24.0271 340.152 24.0271C339.818 24.0271 339.529 24.1099 339.285 24.2757C339.044 24.439 338.858 24.6521 338.728 24.9149C338.598 25.1776 338.533 25.4594 338.533 25.76V26.243C338.533 26.6549 338.604 27.0041 338.746 27.2906C338.89 27.5747 339.09 27.7913 339.346 27.9404C339.601 28.0872 339.899 28.1606 340.237 28.1606C340.457 28.1606 340.656 28.1298 340.834 28.0683C341.014 28.0044 341.169 27.9097 341.299 27.7842C341.429 27.6563 341.53 27.4977 341.601 27.3083L342.41 27.5356C342.325 27.8102 342.182 28.0517 341.981 28.26C341.779 28.466 341.531 28.627 341.235 28.743C340.939 28.8566 340.606 28.9134 340.237 28.9134ZM346.995 28.7998H346.072L348.742 21.5271H349.651L352.322 28.7998H351.398L349.225 22.6776H349.168L346.995 28.7998ZM347.336 25.9589H351.057V26.7401H347.336V25.9589Z" fill="#94A3B8"/>
<rect x="365.4" y="21.6499" width="8" height="8" rx="4" fill="#4B8CE2"/>
<path d="M384.417 25.1634C384.417 25.9305 384.278 26.5934 384.001 27.1521C383.724 27.7108 383.345 28.1417 382.862 28.4447C382.379 28.7477 381.827 28.8992 381.207 28.8992C380.586 28.8992 380.035 28.7477 379.552 28.4447C379.069 28.1417 378.689 27.7108 378.412 27.1521C378.135 26.5934 377.996 25.9305 377.996 25.1634C377.996 24.3964 378.135 23.7335 378.412 23.1748C378.689 22.6161 379.069 22.1852 379.552 21.8822C380.035 21.5792 380.586 21.4276 381.207 21.4276C381.827 21.4276 382.379 21.5792 382.862 21.8822C383.345 22.1852 383.724 22.6161 384.001 23.1748C384.278 23.7335 384.417 24.3964 384.417 25.1634ZM383.565 25.1634C383.565 24.5337 383.459 24.0022 383.249 23.569C383.04 23.1357 382.757 22.8079 382.4 22.5853C382.045 22.3628 381.647 22.2515 381.207 22.2515C380.766 22.2515 380.367 22.3628 380.01 22.5853C379.655 22.8079 379.372 23.1357 379.161 23.569C378.953 24.0022 378.849 24.5337 378.849 25.1634C378.849 25.7932 378.953 26.3247 379.161 26.7579C379.372 27.1911 379.655 27.519 380.01 27.7416C380.367 27.9641 380.766 28.0754 381.207 28.0754C381.647 28.0754 382.045 27.9641 382.4 27.7416C382.757 27.519 383.04 27.1911 383.249 26.7579C383.459 26.3247 383.565 25.7932 383.565 25.1634ZM388.213 23.3453V24.0555H385.273V23.3453H388.213ZM386.153 28.7998V22.5924C386.153 22.2799 386.227 22.0195 386.374 21.8112C386.52 21.6028 386.711 21.4466 386.945 21.3424C387.18 21.2383 387.427 21.1862 387.688 21.1862C387.894 21.1862 388.062 21.2027 388.192 21.2359C388.322 21.269 388.419 21.2998 388.483 21.3282L388.242 22.0526C388.199 22.0384 388.14 22.0207 388.064 21.9994C387.991 21.9781 387.894 21.9674 387.773 21.9674C387.496 21.9674 387.296 22.0373 387.173 22.1769C387.052 22.3166 386.992 22.5214 386.992 22.7913V28.7998H386.153ZM391.817 23.3453V24.0555H388.876V23.3453H391.817ZM389.757 28.7998V22.5924C389.757 22.2799 389.83 22.0195 389.977 21.8112C390.124 21.6028 390.314 21.4466 390.549 21.3424C390.783 21.2383 391.031 21.1862 391.291 21.1862C391.497 21.1862 391.665 21.2027 391.795 21.2359C391.926 21.269 392.023 21.2998 392.087 21.3282L391.845 22.0526C391.802 22.0384 391.743 22.0207 391.667 21.9994C391.594 21.9781 391.497 21.9674 391.376 21.9674C391.099 21.9674 390.899 22.0373 390.776 22.1769C390.655 22.3166 390.595 22.5214 390.595 22.7913V28.7998H389.757ZM392.991 28.7998V23.3453H393.829V28.7998H392.991ZM393.417 22.4362C393.254 22.4362 393.113 22.3805 392.995 22.2693C392.879 22.158 392.821 22.0242 392.821 21.868C392.821 21.7117 392.879 21.578 392.995 21.4667C393.113 21.3554 393.254 21.2998 393.417 21.2998C393.581 21.2998 393.72 21.3554 393.836 21.4667C393.955 21.578 394.014 21.7117 394.014 21.868C394.014 22.0242 393.955 22.158 393.836 22.2693C393.72 22.3805 393.581 22.4362 393.417 22.4362ZM397.58 28.9134C397.069 28.9134 396.628 28.7927 396.259 28.5512C395.89 28.3097 395.606 27.9771 395.407 27.5534C395.208 27.1296 395.109 26.6454 395.109 26.1009C395.109 25.547 395.21 25.0581 395.414 24.6343C395.62 24.2082 395.906 23.8756 396.273 23.6365C396.643 23.395 397.073 23.2742 397.566 23.2742C397.949 23.2742 398.295 23.3453 398.603 23.4873C398.911 23.6294 399.163 23.8282 399.359 24.0839C399.556 24.3396 399.678 24.6379 399.725 24.9788H398.887C398.823 24.7302 398.681 24.51 398.461 24.3183C398.243 24.1241 397.949 24.0271 397.58 24.0271C397.253 24.0271 396.967 24.1123 396.721 24.2828C396.477 24.4508 396.286 24.6888 396.149 24.9965C396.014 25.3019 395.947 25.6606 395.947 26.0725C395.947 26.4939 396.013 26.8609 396.145 27.1734C396.28 27.4859 396.47 27.7285 396.714 27.9014C396.96 28.0742 397.249 28.1606 397.58 28.1606C397.798 28.1606 397.996 28.1227 398.173 28.047C398.351 27.9712 398.501 27.8623 398.624 27.7203C398.747 27.5782 398.835 27.4078 398.887 27.2089H399.725C399.678 27.5309 399.56 27.8209 399.373 28.0789C399.189 28.3346 398.944 28.5382 398.638 28.6897C398.335 28.8389 397.983 28.9134 397.58 28.9134ZM403.237 28.9134C402.712 28.9134 402.258 28.7974 401.877 28.5654C401.498 28.3311 401.206 28.0044 401 27.5853C400.796 27.1639 400.694 26.6739 400.694 26.1151C400.694 25.5564 400.796 25.064 401 24.6379C401.206 24.2094 401.492 23.8756 401.859 23.6365C402.229 23.395 402.659 23.2742 403.152 23.2742C403.436 23.2742 403.716 23.3216 403.993 23.4163C404.27 23.511 404.523 23.6649 404.75 23.8779C404.977 24.0886 405.158 24.368 405.293 24.716C405.428 25.064 405.496 25.4925 405.496 26.0015V26.3566H401.291V25.6322H404.643C404.643 25.3244 404.582 25.0498 404.459 24.8083C404.338 24.5668 404.165 24.3763 403.94 24.2366C403.718 24.0969 403.455 24.0271 403.152 24.0271C402.818 24.0271 402.529 24.1099 402.285 24.2757C402.044 24.439 401.858 24.6521 401.728 24.9149C401.598 25.1776 401.533 25.4594 401.533 25.76V26.243C401.533 26.6549 401.604 27.0041 401.746 27.2906C401.89 27.5747 402.09 27.7913 402.346 27.9404C402.601 28.0872 402.899 28.1606 403.237 28.1606C403.457 28.1606 403.656 28.1298 403.834 28.0683C404.014 28.0044 404.169 27.9097 404.299 27.7842C404.429 27.6563 404.53 27.4977 404.601 27.3083L405.41 27.5356C405.325 27.8102 405.182 28.0517 404.981 28.26C404.779 28.466 404.531 28.627 404.235 28.743C403.939 28.8566 403.606 28.9134 403.237 28.9134ZM409.697 28.7998V21.5271H412.239C412.746 21.5271 413.164 21.6147 413.493 21.7899C413.822 21.9627 414.067 22.1959 414.228 22.4894C414.389 22.7806 414.469 23.1038 414.469 23.4589C414.469 23.7714 414.414 24.0294 414.302 24.233C414.194 24.4366 414.049 24.5976 413.869 24.716C413.692 24.8344 413.499 24.922 413.29 24.9788V25.0498C413.513 25.064 413.737 25.1421 413.962 25.2842C414.186 25.4262 414.375 25.6298 414.526 25.895C414.678 26.1601 414.753 26.4845 414.753 26.868C414.753 27.2326 414.671 27.5605 414.505 27.8517C414.339 28.1428 414.078 28.3737 413.72 28.5441C413.363 28.7146 412.897 28.7998 412.324 28.7998H409.697ZM410.577 28.0186H412.324C412.9 28.0186 413.308 27.9073 413.55 27.6847C413.793 27.4598 413.915 27.1876 413.915 26.868C413.915 26.6218 413.853 26.3945 413.727 26.1862C413.602 25.9755 413.423 25.8074 413.191 25.6819C412.959 25.5541 412.684 25.4901 412.367 25.4901H410.577V28.0186ZM410.577 24.7231H412.211C412.476 24.7231 412.715 24.671 412.928 24.5669C413.144 24.4627 413.314 24.3159 413.439 24.1265C413.567 23.9371 413.631 23.7146 413.631 23.4589C413.631 23.1393 413.52 22.8682 413.297 22.6457C413.075 22.4208 412.722 22.3083 412.239 22.3083H410.577V24.7231Z" fill="#94A3B8"/>
<rect x="427.4" y="21.6499" width="8" height="8" rx="4" fill="#305F43"/>
<path d="M446.417 25.1634C446.417 25.9305 446.278 26.5934 446.001 27.1521C445.724 27.7108 445.345 28.1417 444.862 28.4447C444.379 28.7477 443.827 28.8992 443.207 28.8992C442.586 28.8992 442.035 28.7477 441.552 28.4447C441.069 28.1417 440.689 27.7108 440.412 27.1521C440.135 26.5934 439.996 25.9305 439.996 25.1634C439.996 24.3964 440.135 23.7335 440.412 23.1748C440.689 22.6161 441.069 22.1852 441.552 21.8822C442.035 21.5792 442.586 21.4276 443.207 21.4276C443.827 21.4276 444.379 21.5792 444.862 21.8822C445.345 22.1852 445.724 22.6161 446.001 23.1748C446.278 23.7335 446.417 24.3964 446.417 25.1634ZM445.565 25.1634C445.565 24.5337 445.459 24.0022 445.249 23.569C445.04 23.1357 444.757 22.8079 444.4 22.5853C444.045 22.3628 443.647 22.2515 443.207 22.2515C442.766 22.2515 442.367 22.3628 442.01 22.5853C441.655 22.8079 441.372 23.1357 441.161 23.569C440.953 24.0022 440.849 24.5337 440.849 25.1634C440.849 25.7932 440.953 26.3247 441.161 26.7579C441.372 27.1911 441.655 27.519 442.01 27.7416C442.367 27.9641 442.766 28.0754 443.207 28.0754C443.647 28.0754 444.045 27.9641 444.4 27.7416C444.757 27.519 445.04 27.1911 445.249 26.7579C445.459 26.3247 445.565 25.7932 445.565 25.1634ZM450.213 23.3453V24.0555H447.273V23.3453H450.213ZM448.153 28.7998V22.5924C448.153 22.2799 448.227 22.0195 448.374 21.8112C448.52 21.6028 448.711 21.4466 448.945 21.3424C449.18 21.2383 449.427 21.1862 449.688 21.1862C449.894 21.1862 450.062 21.2027 450.192 21.2359C450.322 21.269 450.419 21.2998 450.483 21.3282L450.242 22.0526C450.199 22.0384 450.14 22.0207 450.064 21.9994C449.991 21.9781 449.894 21.9674 449.773 21.9674C449.496 21.9674 449.296 22.0373 449.173 22.1769C449.052 22.3166 448.992 22.5214 448.992 22.7913V28.7998H448.153ZM453.817 23.3453V24.0555H450.876V23.3453H453.817ZM451.757 28.7998V22.5924C451.757 22.2799 451.83 22.0195 451.977 21.8112C452.124 21.6028 452.314 21.4466 452.549 21.3424C452.783 21.2383 453.031 21.1862 453.291 21.1862C453.497 21.1862 453.665 21.2027 453.795 21.2359C453.926 21.269 454.023 21.2998 454.087 21.3282L453.845 22.0526C453.802 22.0384 453.743 22.0207 453.667 21.9994C453.594 21.9781 453.497 21.9674 453.376 21.9674C453.099 21.9674 452.899 22.0373 452.776 22.1769C452.655 22.3166 452.595 22.5214 452.595 22.7913V28.7998H451.757ZM454.991 28.7998V23.3453H455.829V28.7998H454.991ZM455.417 22.4362C455.254 22.4362 455.113 22.3805 454.995 22.2693C454.879 22.158 454.821 22.0242 454.821 21.868C454.821 21.7117 454.879 21.578 454.995 21.4667C455.113 21.3554 455.254 21.2998 455.417 21.2998C455.581 21.2998 455.72 21.3554 455.836 21.4667C455.955 21.578 456.014 21.7117 456.014 21.868C456.014 22.0242 455.955 22.158 455.836 22.2693C455.72 22.3805 455.581 22.4362 455.417 22.4362ZM459.58 28.9134C459.069 28.9134 458.628 28.7927 458.259 28.5512C457.89 28.3097 457.606 27.9771 457.407 27.5534C457.208 27.1296 457.109 26.6454 457.109 26.1009C457.109 25.547 457.21 25.0581 457.414 24.6343C457.62 24.2082 457.906 23.8756 458.273 23.6365C458.643 23.395 459.073 23.2742 459.566 23.2742C459.949 23.2742 460.295 23.3453 460.603 23.4873C460.911 23.6294 461.163 23.8282 461.359 24.0839C461.556 24.3396 461.678 24.6379 461.725 24.9788H460.887C460.823 24.7302 460.681 24.51 460.461 24.3183C460.243 24.1241 459.949 24.0271 459.58 24.0271C459.253 24.0271 458.967 24.1123 458.721 24.2828C458.477 24.4508 458.286 24.6888 458.149 24.9965C458.014 25.3019 457.947 25.6606 457.947 26.0725C457.947 26.4939 458.013 26.8609 458.145 27.1734C458.28 27.4859 458.47 27.7285 458.714 27.9014C458.96 28.0742 459.249 28.1606 459.58 28.1606C459.798 28.1606 459.996 28.1227 460.173 28.047C460.351 27.9712 460.501 27.8623 460.624 27.7203C460.747 27.5782 460.835 27.4078 460.887 27.2089H461.725C461.678 27.5309 461.56 27.8209 461.373 28.0789C461.189 28.3346 460.944 28.5382 460.638 28.6897C460.335 28.8389 459.983 28.9134 459.58 28.9134ZM465.237 28.9134C464.712 28.9134 464.258 28.7974 463.877 28.5654C463.498 28.3311 463.206 28.0044 463 27.5853C462.796 27.1639 462.694 26.6739 462.694 26.1151C462.694 25.5564 462.796 25.064 463 24.6379C463.206 24.2094 463.492 23.8756 463.859 23.6365C464.229 23.395 464.659 23.2742 465.152 23.2742C465.436 23.2742 465.716 23.3216 465.993 23.4163C466.27 23.511 466.523 23.6649 466.75 23.8779C466.977 24.0886 467.158 24.368 467.293 24.716C467.428 25.064 467.496 25.4925 467.496 26.0015V26.3566H463.291V25.6322H466.643C466.643 25.3244 466.582 25.0498 466.459 24.8083C466.338 24.5668 466.165 24.3763 465.94 24.2366C465.718 24.0969 465.455 24.0271 465.152 24.0271C464.818 24.0271 464.529 24.1099 464.285 24.2757C464.044 24.439 463.858 24.6521 463.728 24.9149C463.598 25.1776 463.533 25.4594 463.533 25.76V26.243C463.533 26.6549 463.604 27.0041 463.746 27.2906C463.89 27.5747 464.09 27.7913 464.346 27.9404C464.601 28.0872 464.899 28.1606 465.237 28.1606C465.457 28.1606 465.656 28.1298 465.834 28.0683C466.014 28.0044 466.169 27.9097 466.299 27.7842C466.429 27.6563 466.53 27.4977 466.601 27.3083L467.41 27.5356C467.325 27.8102 467.182 28.0517 466.981 28.26C466.779 28.466 466.531 28.627 466.235 28.743C465.939 28.8566 465.606 28.9134 465.237 28.9134ZM477.549 23.7998H476.668C476.616 23.5465 476.525 23.324 476.395 23.1322C476.267 22.9404 476.111 22.7794 475.926 22.6492C475.744 22.5167 475.541 22.4172 475.319 22.3509C475.096 22.2847 474.864 22.2515 474.623 22.2515C474.182 22.2515 473.783 22.3628 473.426 22.5853C473.071 22.8079 472.788 23.1357 472.577 23.569C472.369 24.0022 472.265 24.5337 472.265 25.1634C472.265 25.7932 472.369 26.3247 472.577 26.7579C472.788 27.1911 473.071 27.519 473.426 27.7416C473.783 27.9641 474.182 28.0754 474.623 28.0754C474.864 28.0754 475.096 28.0422 475.319 27.9759C475.541 27.9097 475.744 27.8114 475.926 27.6812C476.111 27.5486 476.267 27.3865 476.395 27.1947C476.525 27.0006 476.616 26.778 476.668 26.5271H477.549C477.483 26.8988 477.362 27.2314 477.187 27.5249C477.011 27.8185 476.794 28.0683 476.533 28.2742C476.273 28.4778 475.98 28.6329 475.656 28.7394C475.334 28.846 474.99 28.8992 474.623 28.8992C474.002 28.8992 473.451 28.7477 472.968 28.4447C472.485 28.1417 472.105 27.7108 471.828 27.1521C471.551 26.5934 471.413 25.9305 471.413 25.1634C471.413 24.3964 471.551 23.7335 471.828 23.1748C472.105 22.6161 472.485 22.1852 472.968 21.8822C473.451 21.5792 474.002 21.4276 474.623 21.4276C474.99 21.4276 475.334 21.4809 475.656 21.5874C475.98 21.694 476.273 21.8502 476.533 22.0562C476.794 22.2598 477.011 22.5084 477.187 22.8019C477.362 23.0931 477.483 23.4258 477.549 23.7998Z" fill="#94A3B8"/>
<path opacity="0.8" d="M16 82.2858L93.0667 65.1429L170.133 76.5715L247.2 59.4286L324.267 70.8572L401.333 53.7144L478.4 65.1429" stroke="#00B8A9" stroke-width="4.56158" stroke-linecap="round" stroke-linejoin="round"/>
<path opacity="0.8" d="M16 88.0002L93.0667 76.5716L170.133 82.2859L247.2 70.8574L324.267 76.5716L401.333 65.1431L478.4 70.8574" stroke="#4A90E2" stroke-width="4.56158" stroke-linecap="round" stroke-linejoin="round"/>
<path opacity="0.8" d="M16 93.7141L93.0667 82.2855L170.133 87.9998L247.2 76.5712L324.267 82.2855L401.333 70.8569L478.4 76.5712" stroke="#2D5F3F" stroke-width="4.56158" stroke-linecap="round" stroke-linejoin="round"/>
<path d="M16.8807 139.027H17.9318L20.4034 145.064H20.4886L22.9602 139.027H24.0114V146.3H23.1875V140.774H23.1165L20.8438 146.3H20.0483L17.7756 140.774H17.7045V146.3H16.8807V139.027ZM27.8794 146.413C27.387 146.413 26.955 146.296 26.5833 146.062C26.214 145.828 25.9251 145.5 25.7168 145.078C25.5108 144.657 25.4078 144.164 25.4078 143.601C25.4078 143.033 25.5108 142.537 25.7168 142.113C25.9251 141.689 26.214 141.36 26.5833 141.126C26.955 140.891 27.387 140.774 27.8794 140.774C28.3719 140.774 28.8027 140.891 29.1721 141.126C29.5437 141.36 29.8326 141.689 30.0385 142.113C30.2469 142.537 30.351 143.033 30.351 143.601C30.351 144.164 30.2469 144.657 30.0385 145.078C29.8326 145.5 29.5437 145.828 29.1721 146.062C28.8027 146.296 28.3719 146.413 27.8794 146.413ZM27.8794 145.661C28.2535 145.661 28.5613 145.565 28.8027 145.373C29.0442 145.181 29.223 144.929 29.339 144.617C29.455 144.304 29.513 143.966 29.513 143.601C29.513 143.236 29.455 142.897 29.339 142.582C29.223 142.267 29.0442 142.012 28.8027 141.818C28.5613 141.624 28.2535 141.527 27.8794 141.527C27.5054 141.527 27.1976 141.624 26.9561 141.818C26.7147 142.012 26.5359 142.267 26.4199 142.582C26.3039 142.897 26.2459 143.236 26.2459 143.601C26.2459 143.966 26.3039 144.304 26.4199 144.617C26.5359 144.929 26.7147 145.181 26.9561 145.373C27.1976 145.565 27.5054 145.661 27.8794 145.661ZM32.4684 143.019V146.3H31.6303V140.845H32.44V141.698H32.511C32.6388 141.421 32.833 141.198 33.0934 141.03C33.3538 140.859 33.69 140.774 34.1019 140.774C34.4712 140.774 34.7944 140.85 35.0714 141.002C35.3484 141.151 35.5638 141.378 35.7177 141.683C35.8716 141.986 35.9485 142.37 35.9485 142.834V146.3H35.1104V142.891C35.1104 142.462 34.9992 142.128 34.7766 141.889C34.5541 141.648 34.2487 141.527 33.8604 141.527C33.5929 141.527 33.3538 141.585 33.1431 141.701C32.9348 141.817 32.7702 141.986 32.6495 142.209C32.5288 142.431 32.4684 142.701 32.4684 143.019Z" fill="#64748B"/>
<path d="M93.378 139.808V139.027H98.8325V139.808H96.5456V146.3H95.6649V139.808H93.378ZM102.773 144.07V140.845H103.611V146.3H102.773V145.377H102.717C102.589 145.653 102.39 145.889 102.12 146.083C101.85 146.275 101.509 146.371 101.097 146.371C100.756 146.371 100.453 146.296 100.188 146.147C99.923 145.996 99.7147 145.768 99.5632 145.465C99.4117 145.16 99.3359 144.775 99.3359 144.311V140.845H100.174V144.254C100.174 144.652 100.285 144.969 100.508 145.206C100.733 145.443 101.019 145.561 101.367 145.561C101.575 145.561 101.787 145.508 102.003 145.401C102.221 145.295 102.403 145.131 102.55 144.911C102.699 144.691 102.773 144.411 102.773 144.07ZM107.433 146.413C106.908 146.413 106.454 146.297 106.073 146.065C105.694 145.831 105.402 145.504 105.196 145.085C104.993 144.664 104.891 144.174 104.891 143.615C104.891 143.056 104.993 142.564 105.196 142.138C105.402 141.709 105.689 141.376 106.056 141.136C106.425 140.895 106.856 140.774 107.348 140.774C107.632 140.774 107.913 140.822 108.19 140.916C108.467 141.011 108.719 141.165 108.946 141.378C109.173 141.589 109.355 141.868 109.489 142.216C109.624 142.564 109.692 142.993 109.692 143.502V143.857H105.487V143.132H108.84C108.84 142.824 108.778 142.55 108.655 142.308C108.534 142.067 108.361 141.876 108.136 141.737C107.914 141.597 107.651 141.527 107.348 141.527C107.014 141.527 106.726 141.61 106.482 141.776C106.24 141.939 106.054 142.152 105.924 142.415C105.794 142.678 105.729 142.959 105.729 143.26V143.743C105.729 144.155 105.8 144.504 105.942 144.791C106.086 145.075 106.286 145.291 106.542 145.44C106.798 145.587 107.095 145.661 107.433 145.661C107.654 145.661 107.852 145.63 108.03 145.568C108.21 145.504 108.365 145.41 108.495 145.284C108.625 145.156 108.726 144.998 108.797 144.808L109.607 145.036C109.521 145.31 109.378 145.552 109.177 145.76C108.976 145.966 108.727 146.127 108.431 146.243C108.135 146.357 107.803 146.413 107.433 146.413Z" fill="#64748B"/>
<path d="M168.992 146.3L167.003 139.027H167.898L169.418 144.95H169.489L171.037 139.027H172.032L173.58 144.95H173.651L175.171 139.027H176.066L174.077 146.3H173.168L171.563 140.504H171.506L169.901 146.3H168.992ZM178.828 146.413C178.303 146.413 177.849 146.297 177.468 146.065C177.09 145.831 176.797 145.504 176.591 145.085C176.388 144.664 176.286 144.174 176.286 143.615C176.286 143.056 176.388 142.564 176.591 142.138C176.797 141.709 177.084 141.376 177.451 141.136C177.82 140.895 178.251 140.774 178.743 140.774C179.027 140.774 179.308 140.822 179.585 140.916C179.862 141.011 180.114 141.165 180.341 141.378C180.568 141.589 180.75 141.868 180.884 142.216C181.019 142.564 181.087 142.993 181.087 143.502V143.857H176.882V143.132H180.235C180.235 142.824 180.173 142.55 180.05 142.308C179.929 142.067 179.756 141.876 179.532 141.737C179.309 141.597 179.046 141.527 178.743 141.527C178.409 141.527 178.121 141.61 177.877 141.776C177.635 141.939 177.449 142.152 177.319 142.415C177.189 142.678 177.124 142.959 177.124 143.26V143.743C177.124 144.155 177.195 144.504 177.337 144.791C177.481 145.075 177.681 145.291 177.937 145.44C178.193 145.587 178.49 145.661 178.828 145.661C179.049 145.661 179.247 145.63 179.425 145.568C179.605 145.504 179.76 145.41 179.89 145.284C180.02 145.156 180.121 144.998 180.192 144.808L181.002 145.036C180.916 145.31 180.773 145.552 180.572 145.76C180.371 145.966 180.122 146.127 179.826 146.243C179.53 146.357 179.198 146.413 178.828 146.413ZM184.421 146.413C183.967 146.413 183.566 146.299 183.218 146.069C182.87 145.837 182.597 145.51 182.401 145.089C182.204 144.665 182.106 144.164 182.106 143.587C182.106 143.014 182.204 142.517 182.401 142.095C182.597 141.674 182.871 141.348 183.221 141.119C183.572 140.889 183.976 140.774 184.436 140.774C184.791 140.774 185.071 140.833 185.277 140.952C185.486 141.068 185.644 141.2 185.753 141.35C185.864 141.496 185.951 141.617 186.012 141.712H186.083V139.027H186.921V146.3H186.112V145.462H186.012C185.951 145.561 185.863 145.687 185.75 145.838C185.636 145.987 185.474 146.121 185.263 146.239C185.052 146.355 184.772 146.413 184.421 146.413ZM184.535 145.661C184.871 145.661 185.155 145.573 185.387 145.398C185.619 145.22 185.796 144.975 185.916 144.663C186.037 144.348 186.098 143.984 186.098 143.573C186.098 143.165 186.038 142.809 185.92 142.504C185.802 142.196 185.626 141.957 185.394 141.786C185.162 141.613 184.876 141.527 184.535 141.527C184.18 141.527 183.884 141.618 183.647 141.801C183.413 141.98 183.237 142.225 183.118 142.536C183.002 142.843 182.944 143.189 182.944 143.573C182.944 143.961 183.003 144.314 183.122 144.631C183.242 144.946 183.42 145.197 183.654 145.384C183.891 145.568 184.185 145.661 184.535 145.661Z" fill="#64748B"/>
<path d="M245.168 139.808V139.027H250.623V139.808H248.336V146.3H247.455V139.808H245.168ZM252.706 143.019V146.3H251.868V139.027H252.706V141.698H252.777C252.905 141.416 253.097 141.192 253.352 141.026C253.611 140.858 253.954 140.774 254.382 140.774C254.754 140.774 255.08 140.849 255.359 140.998C255.638 141.145 255.855 141.371 256.009 141.676C256.165 141.979 256.243 142.365 256.243 142.834V146.3H255.405V142.891C255.405 142.457 255.293 142.122 255.068 141.886C254.845 141.647 254.536 141.527 254.141 141.527C253.866 141.527 253.62 141.585 253.402 141.701C253.187 141.817 253.016 141.986 252.891 142.209C252.768 142.431 252.706 142.701 252.706 143.019ZM261.214 144.07V140.845H262.052V146.3H261.214V145.377H261.157C261.029 145.653 260.83 145.889 260.56 146.083C260.291 146.275 259.95 146.371 259.538 146.371C259.197 146.371 258.894 146.296 258.629 146.147C258.363 145.996 258.155 145.768 258.004 145.465C257.852 145.16 257.776 144.775 257.776 144.311V140.845H258.614V144.254C258.614 144.652 258.726 144.969 258.948 145.206C259.173 145.443 259.46 145.561 259.808 145.561C260.016 145.561 260.228 145.508 260.443 145.401C260.661 145.295 260.843 145.131 260.99 144.911C261.139 144.691 261.214 144.411 261.214 144.07Z" fill="#64748B"/>
<path d="M320.461 146.3V139.027H324.822V139.808H321.341V142.266H324.495V143.047H321.341V146.3H320.461ZM326.158 146.3V140.845H326.967V141.669H327.024C327.124 141.399 327.304 141.18 327.564 141.012C327.824 140.844 328.118 140.76 328.445 140.76C328.506 140.76 328.583 140.761 328.675 140.764C328.768 140.766 328.838 140.77 328.885 140.774V141.627C328.857 141.619 328.791 141.609 328.69 141.595C328.59 141.578 328.485 141.57 328.374 141.57C328.108 141.57 327.872 141.625 327.663 141.737C327.457 141.845 327.294 141.997 327.173 142.191C327.055 142.383 326.996 142.602 326.996 142.848V146.3H326.158ZM329.878 146.3V140.845H330.716V146.3H329.878ZM330.305 139.936C330.141 139.936 330 139.881 329.882 139.769C329.766 139.658 329.708 139.524 329.708 139.368C329.708 139.212 329.766 139.078 329.882 138.967C330 138.855 330.141 138.8 330.305 138.8C330.468 138.8 330.608 138.855 330.724 138.967C330.842 139.078 330.901 139.212 330.901 139.368C330.901 139.524 330.842 139.658 330.724 139.769C330.608 139.881 330.468 139.936 330.305 139.936Z" fill="#64748B"/>
<path d="M392.333 140.845C392.29 140.485 392.118 140.206 391.815 140.007C391.512 139.808 391.14 139.709 390.7 139.709C390.378 139.709 390.096 139.761 389.854 139.865C389.615 139.969 389.428 140.113 389.293 140.295C389.161 140.477 389.094 140.684 389.094 140.916C389.094 141.11 389.141 141.277 389.233 141.417C389.328 141.554 389.448 141.669 389.595 141.761C389.742 141.851 389.896 141.926 390.057 141.985C390.218 142.042 390.366 142.088 390.501 142.124L391.239 142.323C391.429 142.372 391.639 142.441 391.871 142.528C392.106 142.616 392.33 142.736 392.543 142.887C392.758 143.036 392.936 143.228 393.075 143.462C393.215 143.697 393.285 143.984 393.285 144.325C393.285 144.718 393.182 145.073 392.976 145.391C392.772 145.708 392.474 145.96 392.081 146.147C391.69 146.334 391.216 146.428 390.657 146.428C390.136 146.428 389.685 146.344 389.304 146.176C388.925 146.007 388.627 145.773 388.409 145.472C388.194 145.172 388.072 144.823 388.043 144.425H388.952C388.976 144.699 389.068 144.927 389.229 145.107C389.393 145.284 389.599 145.417 389.847 145.504C390.098 145.59 390.368 145.632 390.657 145.632C390.993 145.632 391.295 145.578 391.562 145.469C391.83 145.358 392.042 145.204 392.198 145.007C392.354 144.808 392.432 144.576 392.432 144.311C392.432 144.07 392.365 143.873 392.23 143.722C392.095 143.57 391.918 143.447 391.697 143.352C391.477 143.258 391.239 143.175 390.984 143.104L390.089 142.848C389.521 142.685 389.071 142.452 388.739 142.149C388.408 141.845 388.242 141.449 388.242 140.959C388.242 140.552 388.352 140.197 388.572 139.894C388.795 139.588 389.093 139.351 389.467 139.183C389.844 139.013 390.264 138.928 390.728 138.928C391.197 138.928 391.613 139.012 391.978 139.18C392.343 139.345 392.631 139.573 392.844 139.862C393.06 140.15 393.173 140.478 393.185 140.845H392.333ZM396.224 146.428C395.879 146.428 395.565 146.363 395.283 146.232C395.001 146.1 394.778 145.909 394.612 145.661C394.446 145.41 394.363 145.107 394.363 144.752C394.363 144.439 394.425 144.186 394.548 143.992C394.671 143.795 394.836 143.641 395.042 143.53C395.248 143.419 395.475 143.336 395.723 143.281C395.974 143.225 396.227 143.18 396.48 143.146C396.811 143.104 397.08 143.072 397.286 143.051C397.494 143.027 397.646 142.988 397.741 142.933C397.838 142.879 397.886 142.784 397.886 142.649V142.621C397.886 142.27 397.79 141.998 397.598 141.804C397.409 141.61 397.121 141.513 396.736 141.513C396.335 141.513 396.022 141.6 395.795 141.776C395.567 141.951 395.407 142.138 395.315 142.337L394.52 142.053C394.662 141.721 394.851 141.463 395.088 141.278C395.327 141.091 395.587 140.961 395.869 140.888C396.153 140.812 396.433 140.774 396.707 140.774C396.882 140.774 397.084 140.796 397.311 140.838C397.54 140.878 397.762 140.962 397.975 141.09C398.19 141.218 398.369 141.411 398.511 141.669C398.653 141.927 398.724 142.273 398.724 142.706V146.3H397.886V145.561H397.844C397.787 145.68 397.692 145.806 397.559 145.941C397.427 146.076 397.25 146.191 397.03 146.286C396.81 146.38 396.541 146.428 396.224 146.428ZM396.352 145.675C396.683 145.675 396.963 145.61 397.19 145.479C397.42 145.349 397.593 145.181 397.709 144.975C397.827 144.769 397.886 144.553 397.886 144.325V143.558C397.851 143.601 397.773 143.64 397.652 143.676C397.533 143.709 397.396 143.738 397.24 143.764C397.086 143.788 396.936 143.809 396.789 143.828C396.644 143.845 396.527 143.859 396.437 143.871C396.219 143.899 396.016 143.945 395.826 144.009C395.639 144.071 395.488 144.164 395.372 144.29C395.258 144.413 395.201 144.581 395.201 144.794C395.201 145.085 395.309 145.305 395.525 145.455C395.742 145.601 396.018 145.675 396.352 145.675ZM402.626 140.845V141.555H399.799V140.845H402.626ZM400.623 139.538H401.461V144.737C401.461 144.974 401.496 145.152 401.564 145.27C401.635 145.386 401.725 145.464 401.834 145.504C401.945 145.542 402.063 145.561 402.186 145.561C402.278 145.561 402.354 145.556 402.413 145.547C402.472 145.535 402.519 145.526 402.555 145.519L402.725 146.271C402.669 146.293 402.589 146.314 402.488 146.335C402.386 146.359 402.257 146.371 402.1 146.371C401.864 146.371 401.632 146.32 401.404 146.218C401.18 146.116 400.992 145.961 400.843 145.753C400.697 145.545 400.623 145.282 400.623 144.965V139.538Z" fill="#64748B"/>
<path d="M464.228 140.845C464.185 140.485 464.013 140.206 463.71 140.007C463.407 139.808 463.035 139.709 462.595 139.709C462.273 139.709 461.991 139.761 461.749 139.865C461.51 139.969 461.323 140.113 461.188 140.295C461.056 140.477 460.989 140.684 460.989 140.916C460.989 141.11 461.036 141.277 461.128 141.417C461.223 141.554 461.343 141.669 461.49 141.761C461.637 141.851 461.791 141.926 461.952 141.985C462.113 142.042 462.261 142.088 462.396 142.124L463.134 142.323C463.324 142.372 463.534 142.441 463.766 142.528C464.001 142.616 464.225 142.736 464.438 142.887C464.653 143.036 464.831 143.228 464.97 143.462C465.11 143.697 465.18 143.984 465.18 144.325C465.18 144.718 465.077 145.073 464.871 145.391C464.667 145.708 464.369 145.96 463.976 146.147C463.585 146.334 463.111 146.428 462.552 146.428C462.031 146.428 461.58 146.344 461.199 146.176C460.82 146.007 460.522 145.773 460.304 145.472C460.089 145.172 459.967 144.823 459.938 144.425H460.847C460.871 144.699 460.963 144.927 461.124 145.107C461.288 145.284 461.494 145.417 461.742 145.504C461.993 145.59 462.263 145.632 462.552 145.632C462.888 145.632 463.19 145.578 463.457 145.469C463.725 145.358 463.937 145.204 464.093 145.007C464.249 144.808 464.328 144.576 464.328 144.311C464.328 144.07 464.26 143.873 464.125 143.722C463.99 143.57 463.813 143.447 463.592 143.352C463.372 143.258 463.134 143.175 462.879 143.104L461.984 142.848C461.416 142.685 460.966 142.452 460.634 142.149C460.303 141.845 460.137 141.449 460.137 140.959C460.137 140.552 460.247 140.197 460.467 139.894C460.69 139.588 460.988 139.351 461.362 139.183C461.739 139.013 462.159 138.928 462.623 138.928C463.092 138.928 463.508 139.012 463.873 139.18C464.238 139.345 464.526 139.573 464.739 139.862C464.955 140.15 465.069 140.478 465.08 140.845H464.228ZM469.952 144.07V140.845H470.79V146.3H469.952V145.377H469.895C469.767 145.653 469.568 145.889 469.298 146.083C469.028 146.275 468.687 146.371 468.275 146.371C467.935 146.371 467.632 146.296 467.366 146.147C467.101 145.996 466.893 145.768 466.741 145.465C466.59 145.16 466.514 144.775 466.514 144.311V140.845H467.352V144.254C467.352 144.652 467.463 144.969 467.686 145.206C467.911 145.443 468.197 145.561 468.545 145.561C468.754 145.561 468.966 145.508 469.181 145.401C469.399 145.295 469.581 145.131 469.728 144.911C469.877 144.691 469.952 144.411 469.952 144.07ZM473.163 143.019V146.3H472.325V140.845H473.134V141.698H473.205C473.333 141.421 473.527 141.198 473.788 141.03C474.048 140.859 474.384 140.774 474.796 140.774C475.166 140.774 475.489 140.85 475.766 141.002C476.043 141.151 476.258 141.378 476.412 141.683C476.566 141.986 476.643 142.37 476.643 142.834V146.3H475.805V142.891C475.805 142.462 475.694 142.128 475.471 141.889C475.248 141.648 474.943 141.527 474.555 141.527C474.287 141.527 474.048 141.585 473.837 141.701C473.629 141.817 473.465 141.986 473.344 142.209C473.223 142.431 473.163 142.701 473.163 143.019Z" fill="#64748B"/>
</svg>
