<svg width="40" height="40" viewBox="0 0 40 40" fill="none" xmlns="http://www.w3.org/2000/svg">
<rect width="40" height="40" rx="1" fill="#00B8A5" fill-opacity="0.1"/>
<path d="M27.0002 15L25.6572 16.343M25.6572 16.343C24.1569 14.8427 22.122 13.9998 20.0002 13.9998C17.8784 13.9998 15.8435 14.8427 14.3432 16.343C12.8429 17.8433 12 19.8782 12 22C12 24.1218 12.8429 26.1567 14.3432 27.657C15.8435 29.1573 17.8784 30.0002 20.0002 30.0002C22.122 30.0002 24.1569 29.1573 25.6572 27.657C27.1575 26.1567 28.0004 24.1218 28.0004 22C28.0004 19.8782 27.1575 17.8433 25.6572 16.343ZM20.0002 18V22M17.0002 11H23.0002" stroke="#00B8A5" stroke-width="2" stroke-linecap="round" stroke-linejoin="round"/>
</svg>
