<svg width="40" height="40" viewBox="0 0 40 40" fill="none" xmlns="http://www.w3.org/2000/svg">
<rect width="40" height="40" rx="1" fill="#00B8A5" fill-opacity="0.25"/>
<path d="M18.7758 12.4055L15.9963 10.475C15.8527 10.3768 15.6762 10.339 15.505 10.3699C15.3337 10.4008 15.1815 10.4978 15.0813 10.64L9.32878 18.9237C9.2298 19.0667 9.19152 19.2432 9.2223 19.4144C9.25308 19.5856 9.35042 19.7376 9.49303 19.8372L12.2725 21.7685C12.4157 21.8676 12.5924 21.9059 12.7638 21.875C12.9352 21.844 13.0873 21.7464 13.1868 21.6035L18.94 13.3197C19.0392 13.1765 19.0775 12.9999 19.0465 12.8285C19.0156 12.6571 18.918 12.505 18.775 12.4055M20.5098 27.482L23.2893 29.4125C23.3595 29.4619 23.4387 29.4971 23.5225 29.5159C23.6063 29.5347 23.6929 29.5367 23.7775 29.522C23.8621 29.5072 23.943 29.4759 24.0154 29.4298C24.0879 29.3837 24.1505 29.3238 24.1998 29.2535L29.953 20.9697C30.0522 20.8265 30.0905 20.6499 30.0595 20.4785C30.0286 20.3071 29.931 20.155 29.788 20.0555L27.0093 18.125C26.8661 18.0261 26.6897 17.9879 26.5185 18.0188C26.3472 18.0497 26.1953 18.1472 26.0958 18.29L20.3448 26.5677C20.2454 26.7109 20.207 26.8878 20.2379 27.0594C20.2688 27.2309 20.3666 27.3824 20.5098 27.482Z" fill="#635994"/>
<path d="M24.1152 17.7462L22.5267 15.9739L20.1522 14.9937L19.3872 16.0947L21.14 17.9209L23.351 18.8472L24.1152 17.7462Z" fill="#998EA4"/>
<path d="M17.3577 17.9486L16.2567 17.1836L15.8742 17.7341L16.9752 18.4991L17.3577 17.9486ZM22.3167 21.3926L23.4177 22.1576L23.0352 22.7073L21.9342 21.9423L22.3167 21.3926ZM18.1887 22.6136L17.6382 22.2311L16.4907 23.8826L17.0419 24.2651L18.1887 22.6136ZM14.9712 26.0823L15.5277 26.4686L14.3802 28.1193L13.8252 27.7331L14.9712 26.0823Z" fill="#1C1C1C"/>
<path d="M17.4499 13.1165L15.7984 11.9697L14.6509 13.6212L16.3024 14.768L17.4499 13.1165ZM13.8874 14.7215L15.5381 15.869L14.3906 17.5205L12.7406 16.373L13.8874 14.7215ZM13.6264 18.6215L11.9756 17.474L10.8281 19.1255L12.4796 20.2722L13.6264 18.6215ZM26.8114 19.619L28.4629 20.7665L27.3161 22.418L25.6654 21.2705L26.8114 19.619ZM24.9004 22.3715L26.5519 23.519L25.4044 25.1697L23.7536 24.023L24.9004 22.3715ZM24.6401 26.2707L22.9886 25.1232L21.8419 26.7747L23.4934 27.9222L24.6401 26.2707Z" fill="#BCA4EB"/>
<path d="M20.1023 14.96L24.1591 17.777C24.4066 17.9495 24.7478 17.8925 24.9143 17.6412L25.4378 16.8867C25.4788 16.8283 25.5079 16.7624 25.5232 16.6927C25.5386 16.623 25.54 16.551 25.5274 16.4808C25.5148 16.4105 25.4884 16.3435 25.4497 16.2836C25.411 16.2236 25.3608 16.1719 25.3021 16.1315L21.2446 13.3137C21.1861 13.2727 21.1202 13.2437 21.0504 13.2284C20.9807 13.2131 20.9087 13.2117 20.8385 13.2244C20.7682 13.2371 20.7012 13.2636 20.6413 13.3024C20.5814 13.3411 20.5297 13.3914 20.4893 13.4502L19.9658 14.204C19.9248 14.2623 19.8958 14.3283 19.8804 14.398C19.865 14.4676 19.8636 14.5397 19.8762 14.6099C19.8888 14.6801 19.9152 14.7471 19.9539 14.8071C19.9926 14.8671 20.0428 14.9188 20.1016 14.9592M14.7391 28.7765C14.6637 28.8849 14.5677 28.9774 14.4566 29.0488C14.3455 29.1201 14.2215 29.1689 14.0915 29.1923C13.9615 29.2157 13.8283 29.2133 13.6992 29.1852C13.5702 29.1571 13.448 29.1038 13.3396 29.0285C13.2311 28.9531 13.1386 28.8571 13.0672 28.746C12.9959 28.6349 12.9471 28.5109 12.9237 28.3809C12.9003 28.2509 12.9027 28.1176 12.9309 27.9886C12.959 27.8596 13.0122 27.7374 13.0876 27.629C13.2397 27.41 13.4727 27.2604 13.7351 27.2131C13.9976 27.1658 14.2681 27.2248 14.4871 27.377C14.7061 27.5291 14.8556 27.7621 14.9029 28.0245C14.9502 28.287 14.8912 28.5575 14.7391 28.7765ZM17.2658 27.6762L13.2308 24.8735C13.1311 24.804 13.0491 24.7122 12.9913 24.6053C12.9335 24.4985 12.9015 24.3796 12.8978 24.2581C12.8942 24.1367 12.919 24.0161 12.9703 23.906C13.0216 23.7959 13.098 23.6993 13.1933 23.624C13.7571 23.187 14.4455 22.9414 15.1585 22.9228C15.8714 22.9041 16.5718 23.1135 17.1576 23.5203C17.7434 23.9272 18.1841 24.5103 18.4156 25.1849C18.6471 25.8595 18.6573 26.5904 18.4448 27.2712C18.2903 27.7752 17.6948 27.974 17.2658 27.6762ZM15.8963 21.0132L19.9531 23.831C20.2006 24.0035 20.5418 23.9457 20.7083 23.6945L23.5261 19.6385C23.5672 19.58 23.5962 19.514 23.6116 19.4442C23.627 19.3744 23.6284 19.3023 23.6157 19.2319C23.603 19.1616 23.5765 19.0945 23.5377 19.0345C23.4988 18.9745 23.4485 18.9228 23.3896 18.8825L19.3336 16.0647C19.2751 16.0236 19.2091 15.9945 19.1393 15.9791C19.0695 15.9637 18.9974 15.9624 18.9271 15.9751C18.8567 15.9878 18.7896 16.0143 18.7296 16.0531C18.6696 16.0919 18.618 16.1423 18.5776 16.2012L15.7598 20.258C15.7188 20.3164 15.6898 20.3824 15.6745 20.4521C15.6592 20.5218 15.6578 20.5938 15.6705 20.664C15.6832 20.7343 15.7097 20.8013 15.7485 20.8612C15.7872 20.9212 15.8375 20.9728 15.8963 21.0132Z" fill="#B4ACBC"/>
</svg>
