<svg width="40" height="40" viewBox="0 0 40 40" fill="none" xmlns="http://www.w3.org/2000/svg">
<rect width="40" height="40" rx="1" fill="#00B8A5" fill-opacity="0.1"/>
<g clip-path="url(#clip0_106_387)">
<path d="M22.9002 18.194C22.8142 18.1295 22.7097 18.0944 22.6022 18.094H17.4102C17.3027 18.0944 17.1982 18.1295 17.1122 18.194C14.9622 19.836 12.5562 23.014 12.5562 25.54C12.5552 29.105 14.5402 31 20.0002 31C25.4602 31 27.4462 29.105 27.4462 25.54C27.4462 23.014 25.0502 19.836 22.9002 18.194Z" fill="#FFDDA1"/>
<path d="M20.0002 26.4511C15.9862 26.4511 13.8452 25.4261 13.0002 23.4661C12.7237 24.1226 12.5728 24.8251 12.5552 25.5371C12.5552 29.1021 14.5402 30.9971 20.0002 30.9971C25.4602 30.9971 27.4462 29.1021 27.4462 25.5371C27.4292 24.8241 27.2786 24.1206 27.0022 23.4631C26.1552 25.4231 24.0172 26.4511 20.0002 26.4511Z" fill="#FFBC44"/>
<path d="M16.5264 16.106H23.4764" stroke="#00B8A5" stroke-linecap="round" stroke-linejoin="round"/>
<path d="M23.7134 10.444C23.7631 10.3532 23.7833 10.2492 23.771 10.1464C23.7587 10.0436 23.7147 9.94715 23.6449 9.87061C23.5752 9.79407 23.4834 9.74121 23.3821 9.71941C23.2809 9.69761 23.1754 9.70797 23.0804 9.74903L20.9964 10.643L20.4654 9.31303C20.4289 9.22037 20.3654 9.14085 20.2831 9.0848C20.2008 9.02875 20.1035 8.99878 20.0039 8.99878C19.9043 8.99878 19.807 9.02875 19.7247 9.0848C19.6424 9.14085 19.5789 9.22037 19.5424 9.31303L19.0084 10.646L16.9244 9.75203C16.8293 9.71029 16.7236 9.69943 16.622 9.72099C16.5205 9.74255 16.4282 9.79544 16.3583 9.87219C16.2884 9.94895 16.2443 10.0457 16.2323 10.1488C16.2203 10.252 16.241 10.3563 16.2914 10.447C16.8714 11.451 17.2794 12.547 17.4954 13.686C17.5104 13.8069 17.5693 13.9181 17.661 13.9983C17.7526 14.0785 17.8706 14.1222 17.9924 14.121H22.0274C22.1492 14.1222 22.2672 14.0785 22.3588 13.9983C22.4505 13.9181 22.5094 13.8069 22.5244 13.686C22.7358 12.5461 23.1371 11.45 23.7134 10.444Z" fill="#FFBC44" stroke="#00B8A5" stroke-linecap="round" stroke-linejoin="round"/>
<path d="M20.4964 21.566V20.573M21.9854 21.566H19.9714C19.6627 21.5673 19.364 21.6757 19.1264 21.8727C18.8887 22.0697 18.7268 22.3431 18.6682 22.6462C18.6097 22.9493 18.6582 23.2633 18.8054 23.5347C18.9526 23.806 19.1894 24.0178 19.4754 24.134L21.5234 24.954C21.8123 25.068 22.0522 25.2795 22.2016 25.5517C22.351 25.824 22.4004 26.1399 22.3415 26.4448C22.2825 26.7497 22.1187 27.0244 21.8786 27.2213C21.6384 27.4182 21.337 27.5249 21.0264 27.523H19.0074M20.4964 28.515V27.522" stroke="#00B8A5" stroke-linecap="round" stroke-linejoin="round"/>
<path d="M22.9002 18.194C22.8142 18.1295 22.7097 18.0944 22.6022 18.094H17.4102C17.3027 18.0944 17.1982 18.1295 17.1122 18.194C14.9622 19.836 12.5562 23.014 12.5562 25.54C12.5552 29.105 14.5402 31 20.0002 31C25.4602 31 27.4462 29.105 27.4462 25.54C27.4462 23.014 25.0502 19.836 22.9002 18.194Z" stroke="#00B8A5" stroke-linecap="round" stroke-linejoin="round"/>
</g>
<defs>
<clipPath id="clip0_106_387">
<rect width="24" height="24" fill="white" transform="translate(8 8)"/>
</clipPath>
</defs>
</svg>
