<svg width="16" height="16" viewBox="0 0 16 16" fill="none" xmlns="http://www.w3.org/2000/svg">
<path d="M4.66667 10.8668C6.13333 10.8668 7.33333 9.64678 7.33333 8.16678C7.33333 7.39345 6.95333 6.66011 6.19333 6.04011C5.43333 5.42011 4.86 4.50011 4.66667 3.53345C4.47333 4.50011 3.90667 5.42678 3.14 6.04011C2.37333 6.65345 2 7.40011 2 8.16678C2 9.64678 3.2 10.8668 4.66667 10.8668Z" stroke="#60A5FA" stroke-width="1.33333" stroke-linecap="round" stroke-linejoin="round"/>
<path d="M8.37339 4.40009C8.8319 3.66751 9.15693 2.85946 9.33339 2.01343C9.66673 3.68009 10.6667 5.28009 12.0001 6.34676C13.3334 7.41343 14.0001 8.68009 14.0001 10.0134C14.0039 10.935 13.734 11.8369 13.2246 12.6048C12.7152 13.3728 11.9893 13.9722 11.1388 14.3271C10.2884 14.682 9.35167 14.7764 8.44751 14.5983C7.54334 14.4202 6.71241 13.9777 6.06006 13.3268" stroke="#60A5FA" stroke-width="1.33333" stroke-linecap="round" stroke-linejoin="round"/>
</svg>
