<svg width="40" height="40" viewBox="0 0 40 40" fill="none" xmlns="http://www.w3.org/2000/svg">
<rect width="40" height="40" rx="1" fill="#00B8A5" fill-opacity="0.1"/>
<g clip-path="url(#clip0_106_377)">
<path d="M19.9999 27.768C19.5817 27.768 19.4302 27.429 19.4302 27.0108L19.2427 16.9083C19.2427 16.4901 19.5817 16.1511 19.9999 16.1511C20.4181 16.1511 20.7571 16.4901 20.7571 16.9083L20.5696 27.0108C20.5696 27.429 20.4181 27.768 19.9999 27.768Z" fill="#D5DEE4"/>
<path d="M19.9999 16.1511C19.5817 16.1511 19.2427 16.4901 19.2427 16.9083L19.2974 19.8579C19.5231 19.91 19.7583 19.9376 19.9999 19.9376C20.2414 19.9376 20.4766 19.91 20.7023 19.8579L20.7571 16.9083C20.7571 16.4902 20.4181 16.1511 19.9999 16.1511Z" fill="#BCCBD3"/>
<path d="M20 18.9688C21.9157 18.9688 23.4688 17.4157 23.4688 15.5C23.4688 13.5843 21.9157 12.0312 20 12.0312C18.0843 12.0312 16.5312 13.5843 16.5312 15.5C16.5312 17.4157 18.0843 18.9688 20 18.9688Z" fill="#FF473E"/>
<path d="M17.5156 14.7438C17.7902 14.9255 18.2631 14.6944 18.5719 14.2276C18.8807 13.7608 18.9085 13.2352 18.6339 13.0535C18.3593 12.8719 17.8864 13.103 17.5776 13.5698C17.2688 14.0365 17.241 14.5622 17.5156 14.7438Z" fill="#FD7085"/>
</g>
<defs>
<clipPath id="clip0_106_377">
<rect width="16" height="16" fill="white" transform="translate(12 12)"/>
</clipPath>
</defs>
</svg>
