<svg width="40" height="40" viewBox="0 0 40 40" fill="none" xmlns="http://www.w3.org/2000/svg">
<rect width="40" height="40" rx="1" fill="#00B8A5" fill-opacity="0.1"/>
<path d="M20 25C23.662 25 26.865 26.575 28.607 28.925L26.765 29.796C25.347 28.116 22.847 27 20 27C17.152 27 14.653 28.116 13.235 29.796L11.394 28.924C13.136 26.574 16.338 25 20 25ZM20 10C21.3261 10 22.5979 10.5268 23.5356 11.4645C24.4733 12.4021 25 13.6739 25 15V18C25 19.3261 24.4733 20.5979 23.5356 21.5355C22.5979 22.4732 21.3261 23 20 23C18.674 23 17.4022 22.4732 16.4645 21.5355C15.5268 20.5979 15 19.3261 15 18V15C15 13.6739 15.5268 12.4021 16.4645 11.4645C17.4022 10.5268 18.674 10 20 10Z" fill="#00B8A5"/>
</svg>
