<svg width="24" height="24" viewBox="0 0 24 24" fill="none" xmlns="http://www.w3.org/2000/svg">
<path d="M6.1248 12.15C6.55814 11.05 7.07914 9.99166 7.68781 8.975C8.29647 7.95833 8.9838 7 9.7498 6.1L8.4498 5.825C8.11647 5.75833 7.79147 5.775 7.4748 5.875C7.15814 5.975 6.88314 6.14166 6.64981 6.375L3.4998 9.525C3.2498 9.775 3.1538 10.075 3.2118 10.425C3.2698 10.775 3.4658 11.0167 3.7998 11.15L6.1248 12.15ZM20.8248 2.4C19.0581 2.31666 17.3791 2.65833 15.7878 3.425C14.1965 4.19166 12.7755 5.2 11.5248 6.45C10.7248 7.25 10.0205 8.11666 9.4118 9.05C8.80314 9.98333 8.27447 10.9667 7.8258 12C7.74247 12.2167 7.7008 12.4377 7.7008 12.663C7.7008 12.8883 7.78414 13.084 7.9508 13.25L11.0758 16.375C11.2425 16.5417 11.4385 16.625 11.6638 16.625C11.8891 16.625 12.1098 16.5833 12.3258 16.5C13.3591 16.05 14.3425 15.5207 15.2758 14.912C16.2091 14.3033 17.0758 13.5993 17.8758 12.8C19.1258 11.55 20.1341 10.1293 20.9008 8.538C21.6675 6.94666 22.0088 5.26733 21.9248 3.5C21.9248 3.36666 21.8915 3.23333 21.8248 3.1C21.7581 2.96666 21.6748 2.85 21.5748 2.75C21.4748 2.65 21.3581 2.56666 21.2248 2.5C21.0915 2.43333 20.9581 2.4 20.8248 2.4ZM14.4748 9.85C14.0915 9.46666 13.8998 8.996 13.8998 8.438C13.8998 7.88 14.0915 7.409 14.4748 7.025C14.8581 6.641 15.3291 6.44933 15.8878 6.45C16.4465 6.45066 16.9171 6.64233 17.2998 7.025C17.6825 7.40766 17.8741 7.87866 17.8748 8.438C17.8755 8.99733 17.6838 9.468 17.2998 9.85C16.9158 10.232 16.4451 10.4237 15.8878 10.425C15.3305 10.4263 14.8595 10.2347 14.4748 9.85ZM12.1748 18.2L13.1748 20.525C13.3081 20.8583 13.5498 21.0583 13.8998 21.125C14.2498 21.1917 14.5498 21.1 14.7998 20.85L17.9498 17.7C18.1831 17.4667 18.3498 17.1877 18.4498 16.863C18.5498 16.5383 18.5665 16.209 18.4998 15.875L18.2498 14.575C17.3331 15.3417 16.3708 16.0293 15.3628 16.638C14.3548 17.2467 13.2921 17.7673 12.1748 18.2ZM4.0498 16.05C4.63314 15.4667 5.34147 15.1707 6.1748 15.162C7.00814 15.1533 7.71647 15.441 8.2998 16.025C8.88314 16.609 9.1748 17.3173 9.1748 18.15C9.1748 18.9827 8.88314 19.691 8.2998 20.275C7.4998 21.075 6.5538 21.55 5.4618 21.7C4.3698 21.85 3.27414 22 2.1748 22.15C2.3248 21.05 2.47914 19.9543 2.6378 18.863C2.79647 17.7717 3.26714 16.834 4.0498 16.05Z" fill="#00B8A5"/>
</svg>
