<svg width="16" height="16" viewBox="0 0 16 16" fill="none" xmlns="http://www.w3.org/2000/svg">
<path d="M14.6668 7.99992H13.0135C12.7221 7.9993 12.4386 8.09412 12.2062 8.2699C11.9739 8.44567 11.8055 8.69272 11.7268 8.97325L10.1602 14.5466C10.1501 14.5812 10.129 14.6116 10.1002 14.6333C10.0713 14.6549 10.0362 14.6666 10.0002 14.6666C9.9641 14.6666 9.92901 14.6549 9.90016 14.6333C9.87131 14.6116 9.85026 14.5812 9.84016 14.5466L6.16016 1.45325C6.15007 1.41863 6.12901 1.38822 6.10016 1.36659C6.07131 1.34495 6.03622 1.33325 6.00016 1.33325C5.9641 1.33325 5.92901 1.34495 5.90016 1.36659C5.87131 1.38822 5.85026 1.41863 5.84016 1.45325L4.2735 7.02659C4.19514 7.30602 4.02775 7.55226 3.79674 7.72793C3.56573 7.90359 3.28371 7.99909 2.9935 7.99992H1.3335" stroke="#C084FC" stroke-width="1.33333" stroke-linecap="round" stroke-linejoin="round"/>
</svg>
