<svg width="16" height="16" viewBox="0 0 16 16" fill="none" xmlns="http://www.w3.org/2000/svg">
<path d="M15 10C14.9993 8.66388 14.6121 7.3565 13.885 6.2355L13.163 6.958C13.7107 7.87821 13.9998 8.92916 14 10H15ZM14 4.707L13.293 4L9.00951 8.2835C8.7047 8.09977 8.35591 8.00182 8.00001 8C7.60445 8 7.21777 8.1173 6.88887 8.33707C6.55997 8.55683 6.30363 8.86919 6.15225 9.23464C6.00087 9.60009 5.96127 10.0022 6.03844 10.3902C6.11561 10.7781 6.30609 11.1345 6.5858 11.4142C6.8655 11.6939 7.22187 11.8844 7.60983 11.9616C7.99779 12.0387 8.39992 11.9991 8.76538 11.8478C9.13083 11.6964 9.44319 11.44 9.66295 11.1111C9.88271 10.7822 10 10.3956 10 10C9.99828 9.64394 9.90033 9.29496 9.71651 8.99L14 4.707ZM8.00001 11C7.80223 11 7.60889 10.9414 7.44444 10.8315C7.27999 10.7216 7.15182 10.5654 7.07613 10.3827C7.00044 10.2 6.98064 9.9989 7.01922 9.80491C7.05781 9.61093 7.15305 9.43275 7.2929 9.2929C7.43276 9.15305 7.61094 9.0578 7.80492 9.01922C7.9989 8.98063 8.19997 9.00044 8.38269 9.07613C8.56542 9.15181 8.7216 9.27998 8.83148 9.44443C8.94136 9.60888 9.00001 9.80222 9.00001 10C9.00001 10.2652 8.89465 10.5196 8.70712 10.7071C8.51958 10.8946 8.26523 11 8.00001 11ZM8.00001 4C9.07068 4.00027 10.1214 4.28943 11.0415 4.837L11.7685 4.1105C10.712 3.43109 9.49192 3.04899 8.23661 3.00439C6.9813 2.9598 5.73717 3.25436 4.63512 3.85709C3.53307 4.45982 2.61385 5.34844 1.97415 6.42945C1.33445 7.51046 0.997939 8.7439 1.00001 10H2.00001C2.00186 8.40927 2.6346 6.88423 3.75941 5.75941C4.88423 4.63459 6.40928 4.00186 8.00001 4Z" fill="#00B8A5"/>
</svg>
