<svg width="16" height="16" viewBox="0 0 16 16" fill="none" xmlns="http://www.w3.org/2000/svg">
<path d="M9.3335 2.66659V9.69325C9.84188 9.98676 10.2392 10.4398 10.4638 10.9822C10.6885 11.5245 10.7279 12.1258 10.576 12.6928C10.424 13.2599 10.0892 13.7609 9.62353 14.1183C9.15781 14.4756 8.58719 14.6693 8.00016 14.6693C7.41314 14.6693 6.84252 14.4756 6.3768 14.1183C5.91108 13.7609 5.57629 13.2599 5.42436 12.6928C5.27243 12.1258 5.31184 11.5245 5.53648 10.9822C5.76113 10.4398 6.15845 9.98676 6.66683 9.69325V2.66659C6.66683 2.31296 6.80731 1.97382 7.05736 1.72378C7.3074 1.47373 7.64654 1.33325 8.00016 1.33325C8.35379 1.33325 8.69292 1.47373 8.94297 1.72378C9.19302 1.97382 9.3335 2.31296 9.3335 2.66659Z" stroke="#FB923C" stroke-width="1.33333" stroke-linecap="round" stroke-linejoin="round"/>
</svg>
