<svg width="48" height="48" viewBox="0 0 48 48" fill="none" xmlns="http://www.w3.org/2000/svg">
<rect width="48" height="48" rx="2" fill="#4A90E2" fill-opacity="0.1"/>
<path d="M22.6 28.6L29.65 21.55L28.25 20.15L22.6 25.8L19.75 22.95L18.35 24.35L22.6 28.6ZM24 34C22.6167 34 21.3167 33.7373 20.1 33.212C18.8833 32.6867 17.825 31.9743 16.925 31.075C16.025 30.1757 15.3127 29.1173 14.788 27.9C14.2633 26.6827 14.0007 25.3827 14 24C13.9993 22.6173 14.262 21.3173 14.788 20.1C15.314 18.8827 16.0263 17.8243 16.925 16.925C17.8237 16.0257 18.882 15.3133 20.1 14.788C21.318 14.2627 22.618 14 24 14C25.382 14 26.682 14.2627 27.9 14.788C29.118 15.3133 30.1763 16.0257 31.075 16.925C31.9737 17.8243 32.6863 18.8827 33.213 20.1C33.7397 21.3173 34.002 22.6173 34 24C33.998 25.3827 33.7353 26.6827 33.212 27.9C32.6887 29.1173 31.9763 30.1757 31.075 31.075C30.1737 31.9743 29.1153 32.687 27.9 33.213C26.6847 33.739 25.3847 34.0013 24 34Z" fill="#4A90E2"/>
</svg>
