<svg width="40" height="40" viewBox="0 0 40 40" fill="none" xmlns="http://www.w3.org/2000/svg">
<rect width="40" height="40" rx="1" fill="#00B8A5" fill-opacity="0.25"/>
<path d="M28.6668 9.33325H11.3335C10.8031 9.33325 10.2944 9.54397 9.91928 9.91904C9.54421 10.2941 9.3335 10.8028 9.3335 11.3333V28.6666C9.3335 29.197 9.54421 29.7057 9.91928 30.0808C10.2944 30.4559 10.8031 30.6666 11.3335 30.6666H28.6668C29.1973 30.6666 29.706 30.4559 30.081 30.0808C30.4561 29.7057 30.6668 29.197 30.6668 28.6666V11.3333C30.6668 10.8028 30.4561 10.2941 30.081 9.91904C29.706 9.54397 29.1973 9.33325 28.6668 9.33325Z" fill="#CCD6DD"/>
<path d="M28.6665 8.66675H11.3332C10.6259 8.66675 9.94765 8.9477 9.44755 9.4478C8.94746 9.94789 8.6665 10.6262 8.6665 11.3334V28.6667C8.6665 29.374 8.94746 30.0523 9.44755 30.5524C9.94765 31.0525 10.6259 31.3334 11.3332 31.3334H28.6665C29.3737 31.3334 30.052 31.0525 30.5521 30.5524C31.0522 30.0523 31.3332 29.374 31.3332 28.6667V11.3334C31.3332 10.6262 31.0522 9.94789 30.5521 9.4478C30.052 8.9477 29.3737 8.66675 28.6665 8.66675ZM28.6665 10.0001C29.4018 10.0001 29.9998 10.5981 29.9998 11.3334V14.0001H25.9998V10.0001H28.6665ZM25.9998 20.6667H29.9998V24.6667H25.9998V20.6667ZM25.9998 19.3334V15.3334H29.9998V19.3334H25.9998ZM24.6665 10.0001V14.0001H20.6665V10.0001H24.6665ZM20.6665 15.3334H24.6665V19.3334H20.6665V15.3334ZM20.6665 20.6667H24.6665V24.6667H20.6665V20.6667ZM19.3332 10.0001V14.0001H15.3332V10.0001H19.3332ZM15.3332 15.3334H19.3332V19.3334H15.3332V15.3334ZM15.3332 20.6667H19.3332V24.6667H15.3332V20.6667ZM9.99984 11.3334C9.99984 10.5981 10.5978 10.0001 11.3332 10.0001H13.9998V14.0001H9.99984V11.3334ZM9.99984 15.3334H13.9998V19.3334H9.99984V15.3334ZM9.99984 20.6667H13.9998V24.6667H9.99984V20.6667ZM11.3332 30.0001C10.5978 30.0001 9.99984 29.4021 9.99984 28.6667V26.0001H13.9998V30.0001H11.3332ZM15.3332 30.0001V26.0001H19.3332V30.0001H15.3332ZM20.6665 30.0001V26.0001H24.6665V30.0001H20.6665ZM28.6665 30.0001H25.9998V26.0001H29.9998V28.6667C29.9998 29.4021 29.4018 30.0001 28.6665 30.0001Z" fill="#E1E8ED"/>
<path d="M16.6665 29.9999H12.6665V18.6666C12.6665 18.313 12.807 17.9738 13.057 17.7238C13.3071 17.4737 13.6462 17.3333 13.9998 17.3333H15.3332C15.6868 17.3333 16.0259 17.4737 16.276 17.7238C16.526 17.9738 16.6665 18.313 16.6665 18.6666V29.9999Z" fill="#5C913B"/>
<path d="M27.3335 30.0001H23.3335V14.0001C23.3335 13.6465 23.474 13.3073 23.724 13.0573C23.9741 12.8072 24.3132 12.6667 24.6668 12.6667H26.0002C26.3538 12.6667 26.6929 12.8072 26.943 13.0573C27.193 13.3073 27.3335 13.6465 27.3335 14.0001V30.0001Z" fill="#3B94D9"/>
<path d="M22 30H18V23.3333C18 22.9797 18.1405 22.6406 18.3905 22.3905C18.6406 22.1405 18.9797 22 19.3333 22H20.6667C21.0203 22 21.3594 22.1405 21.6095 22.3905C21.8595 22.6406 22 22.9797 22 23.3333V30Z" fill="#DD2E44"/>
</svg>
