<svg width="32" height="32" viewBox="0 0 32 32" fill="none" xmlns="http://www.w3.org/2000/svg">
<rect width="32" height="32" rx="16" fill="#00B8A5" fill-opacity="0.1"/>
<path d="M20.9998 18L23.9998 21.3C24.1369 21.4398 24.2299 21.6167 24.2673 21.8088C24.3048 22.001 24.285 22.1998 24.2105 22.3808C24.1359 22.5618 24.0099 22.717 23.848 22.8271C23.6862 22.9371 23.4955 22.9973 23.2998 23H8.69982C8.5041 22.9973 8.31348 22.9371 8.15161 22.8271C7.98973 22.717 7.86372 22.5618 7.78919 22.3808C7.71466 22.1998 7.69489 22.001 7.73233 21.8088C7.76977 21.6167 7.86278 21.4398 7.99982 21.3L10.9998 18H10.6998C10.5041 17.9973 10.3135 17.9371 10.1516 17.8271C9.98973 17.717 9.86372 17.5619 9.78919 17.3808C9.71466 17.1998 9.69489 17.001 9.73233 16.8088C9.76977 16.6167 9.86278 16.4398 9.99982 16.3L12.9998 13H12.7998C12.5956 13.0184 12.3906 12.9736 12.2127 12.8716C12.0347 12.7696 11.8925 12.6154 11.8052 12.4298C11.7178 12.2443 11.6897 12.0364 11.7245 11.8343C11.7593 11.6322 11.8554 11.4456 11.9998 11.3L15.9998 7L19.9998 11.3C20.1442 11.4456 20.2403 11.6322 20.2751 11.8343C20.31 12.0364 20.2818 12.2443 20.1945 12.4298C20.1072 12.6154 19.9649 12.7696 19.787 12.8716C19.6091 12.9736 19.4041 13.0184 19.1998 13H18.9998L21.9998 16.3C22.1369 16.4398 22.2299 16.6167 22.2673 16.8088C22.3048 17.001 22.285 17.1998 22.2105 17.3808C22.1359 17.5619 22.0099 17.717 21.848 17.8271C21.6862 17.9371 21.4955 17.9973 21.2998 18H20.9998Z" stroke="#00B8A5" stroke-width="1.33333" stroke-linecap="round" stroke-linejoin="round"/>
<path d="M16 26V23" stroke="#00B8A5" stroke-width="1.33333" stroke-linecap="round" stroke-linejoin="round"/>
</svg>
