<svg width="40" height="40" viewBox="0 0 40 40" fill="none" xmlns="http://www.w3.org/2000/svg">
<rect width="40" height="40" rx="12" fill="#305F43" fill-opacity="0.2"/>
<path d="M24.1668 21.6667L26.6668 24.4167C26.781 24.5331 26.8585 24.6806 26.8898 24.8407C26.921 25.0008 26.9045 25.1665 26.8424 25.3174C26.7803 25.4682 26.6752 25.5975 26.5404 25.6892C26.4055 25.7809 26.2466 25.831 26.0835 25.8333H13.9168C13.7537 25.831 13.5949 25.7809 13.46 25.6892C13.3251 25.5975 13.2201 25.4682 13.158 25.3174C13.0959 25.1665 13.0794 25.0008 13.1106 24.8407C13.1418 24.6806 13.2193 24.5331 13.3335 24.4167L15.8335 21.6667H15.5835C15.4204 21.6644 15.2616 21.6143 15.1267 21.5225C14.9918 21.4308 14.8868 21.3015 14.8247 21.1507C14.7625 20.9999 14.7461 20.8341 14.7773 20.674C14.8085 20.5139 14.886 20.3665 15.0002 20.25L17.5002 17.5H17.3335C17.1633 17.5154 16.9925 17.478 16.8442 17.393C16.6959 17.308 16.5774 17.1795 16.5046 17.0249C16.4319 16.8702 16.4084 16.697 16.4374 16.5285C16.4664 16.3601 16.5465 16.2047 16.6668 16.0833L20.0002 12.5L23.3335 16.0833C23.4538 16.2047 23.5339 16.3601 23.5629 16.5285C23.592 16.697 23.5685 16.8702 23.4957 17.0249C23.423 17.1795 23.3044 17.308 23.1561 17.393C23.0079 17.478 22.8371 17.5154 22.6668 17.5H22.5002L25.0002 20.25C25.1144 20.3665 25.1919 20.5139 25.2231 20.674C25.2543 20.8341 25.2378 20.9999 25.1757 21.1507C25.1136 21.3015 25.0086 21.4308 24.8737 21.5225C24.7388 21.6143 24.5799 21.6644 24.4168 21.6667H24.1668Z" stroke="#305F43" stroke-width="1.66667" stroke-linecap="round" stroke-linejoin="round"/>
<path d="M20 28.3333V25.8333" stroke="#305F43" stroke-width="1.66667" stroke-linecap="round" stroke-linejoin="round"/>
</svg>
