<svg width="48" height="48" viewBox="0 0 48 48" fill="none" xmlns="http://www.w3.org/2000/svg">
<rect width="48" height="48" rx="2" fill="#2D5F3F" fill-opacity="0.15"/>
<path d="M26.6668 33.9999C26.6668 35.4726 25.4728 35.9999 24.0002 35.9999C22.5275 35.9999 21.3335 35.4726 21.3335 33.9999L22.0002 27.9999C22.0002 26.5273 22.5275 26.6666 24.0002 26.6666C25.4728 26.6666 26.0002 26.5273 26.0002 27.9999L26.6668 33.9999Z" fill="#662113"/>
<path d="M32.9376 30.198C28.2956 26.2213 26.4156 20.5273 24.0002 20.5273C21.5849 20.5273 19.7049 26.2213 15.0636 30.198C13.1129 31.8693 14.0422 32.836 16.7162 32.6427C19.1002 32.4707 21.3289 31.93 24.0002 31.93C26.6716 31.93 28.9016 32.4713 31.2842 32.6427C33.9589 32.836 34.8876 31.8693 32.9376 30.198Z" fill="#5C913B"/>
<path d="M31.4299 28.6226C27.8625 25.3513 25.8579 20.6666 23.9999 20.6666C22.1432 20.6666 20.1379 25.3513 16.5705 28.6226C13.7359 31.2213 20.2852 31.8046 23.9999 28.6226C27.7125 31.8046 34.2639 31.2213 31.4299 28.6226Z" fill="#3E721D"/>
<path d="M31.4299 25.9726C27.8625 22.9166 25.8579 18.5406 23.9999 18.5406C22.1432 18.5406 20.1379 22.9166 16.5705 25.9726C13.7359 28.4006 20.2852 28.9453 23.9999 25.9726C27.7125 28.9453 34.2639 28.4006 31.4299 25.9726Z" fill="#5C913B"/>
<path d="M29.7999 23.802C27.0152 21.4167 25.4505 18 23.9999 18C22.5505 18 20.9845 21.4167 18.1999 23.802C15.9872 25.698 21.0999 26.1233 23.9999 23.802C26.8992 26.1233 32.0132 25.698 29.7999 23.802Z" fill="#3E721D"/>
<path d="M29.7999 21.8174C27.0152 19.4314 25.4505 16.0154 23.9999 16.0154C22.5505 16.0154 20.9845 19.432 18.1999 21.8174C15.9872 23.7134 21.0999 24.138 23.9999 21.8174C26.8992 24.138 32.0132 23.7127 29.7999 21.8174Z" fill="#5C913B"/>
<path d="M28.6807 20.054C26.4334 18.1287 25.1707 15.3713 24 15.3713C22.83 15.3713 21.5667 18.1287 19.3194 20.054C17.5334 21.584 21.66 21.9267 24 20.054C26.34 21.9273 30.4674 21.584 28.6807 20.054Z" fill="#3E721D"/>
<path d="M28.6807 18.5594C26.4334 16.634 25.1707 13.8767 24 13.8767C22.83 13.8767 21.5667 16.634 19.3194 18.5594C17.5334 20.0894 21.66 20.432 24 18.5594C26.34 20.4327 30.4674 20.0894 28.6807 18.5594Z" fill="#5C913B"/>
<path d="M27.5622 16.36C25.8522 14.8946 24.8908 12.7966 24.0002 12.7966C23.1102 12.7966 22.1482 14.8953 20.4382 16.36C19.0795 17.5246 22.2188 17.7853 24.0002 16.36C25.7808 17.7853 28.9215 17.524 27.5622 16.36Z" fill="#3E721D"/>
<path d="M27.5622 15.5633C25.8522 14.0987 24.8908 12 24.0002 12C23.1102 12 22.1482 14.0987 20.4382 15.5633C19.0795 16.728 22.2188 16.9887 24.0002 15.5633C25.7808 16.9887 28.9215 16.7273 27.5622 15.5633Z" fill="#5C913B"/>
</svg>
